<?xml version="1.0" encoding="UTF-8"?>
<svg version="1.1" xmlns="http://www.w3.org/2000/svg" width="195" height="193">
<path d="M0 0 C64.35 0 128.7 0 195 0 C195 63.69 195 127.38 195 193 C130.65 193 66.3 193 0 193 C0 129.31 0 65.62 0 0 Z " fill="#5CB8FE" transform="translate(0,0)"/>
<path d="M0 0 C0.75152344 -0.02900391 1.50304687 -0.05800781 2.27734375 -0.08789062 C7.56036593 -0.1478202 10.66334138 0.66715215 14.75 4.3125 C19.24394232 11.1622142 18.55063675 19.3170741 17.29296875 27.1640625 C16.94094984 28.80006406 16.58076569 30.43433838 16.2109375 32.06640625 C15.26705888 36.66581479 14.77202934 40.68338051 17.28125 44.86328125 C20.37306432 47.93063501 23.56723749 48.93860109 27.625 50.1875 C34.13554164 52.39879259 38.04268642 54.24598686 41.75 60.3125 C43.71654899 65.90828244 42.97484853 72.30785276 42.99023438 78.17626953 C42.99999736 80.43688979 43.03107132 82.69662191 43.0625 84.95703125 C43.06902514 86.39061961 43.07427753 87.82421445 43.078125 89.2578125 C43.0874707 90.56250488 43.09681641 91.86719727 43.10644531 93.21142578 C42.93000488 94.74645752 42.93000488 94.74645752 42.75 96.3125 C39.13849802 98.72016798 36.00881413 98.9913282 31.8046875 99.421875 C31.01013153 99.50596619 30.21557556 99.59005737 29.39694214 99.67669678 C21.06369639 100.48760686 12.7557379 100.61569803 4.38867188 100.57324219 C1.85523056 100.56241552 -0.67751591 100.57327526 -3.2109375 100.5859375 C-25.09156098 100.60831414 -25.09156098 100.60831414 -31.53271484 97.05224609 C-33.80264949 94.75262222 -33.76505528 93.50141007 -33.78125 90.3046875 C-33.78640625 89.31726563 -33.7915625 88.32984375 -33.796875 87.3125 C-33.77367187 85.765625 -33.77367187 85.765625 -33.75 84.1875 C-33.76546875 83.17945312 -33.7809375 82.17140625 -33.796875 81.1328125 C-33.75662804 73.36514866 -32.63579294 66.70413052 -26.984375 61.04296875 C-23.51842093 58.84951496 -20.0408587 56.69561775 -16.5 54.625 C-12.12672408 52.29010457 -12.12672408 52.29010457 -8.25 49.3125 C-8.20907063 46.97952567 -8.20758277 44.64544775 -8.25 42.3125 C-9.02085938 42.26351562 -9.79171875 42.21453125 -10.5859375 42.1640625 C-11.58882812 42.08929688 -12.59171875 42.01453125 -13.625 41.9375 C-15.12160156 41.83308594 -15.12160156 41.83308594 -16.6484375 41.7265625 C-19.25 41.3125 -19.25 41.3125 -21.25 39.3125 C-21.39104979 36.53558229 -21.24476259 33.81605761 -21.125 31.0390625 C-21.2540094 28.225045 -21.80467457 26.69502864 -23.25 24.3125 C-22.775625 23.838125 -22.30125 23.36375 -21.8125 22.875 C-20.17059737 20.18227969 -20.01905581 18.99968987 -19.8125 15.9375 C-19.32605963 10.12882975 -16.98157508 6.83793519 -12.625 3 C-8.43951521 0.02610291 -5.00549111 0.06309443 0 0 Z " fill="#015679" transform="translate(95.25,16.6875)"/>
<path d="M0 0 C11.57983353 -0.76294657 11.57983353 -0.76294657 14.94140625 1.04296875 C18.54626555 4.71239269 19.13469404 7.63891136 19.28125 12.59375 C19.31863281 13.70621094 19.35601562 14.81867187 19.39453125 15.96484375 C19.46484375 18.32161458 19.53515625 20.67838542 19.60546875 23.03515625 C19.64285156 24.14761719 19.68023437 25.26007813 19.71875 26.40625 C19.74904297 27.43041016 19.77933594 28.45457031 19.81054688 29.50976562 C19.84212357 31.99930916 19.84212357 31.99930916 21 34 C21.474375 33.030625 21.94875 32.06125 22.4375 31.0625 C24 28 24 28 25 27 C28.17812859 26.37987735 30.23072419 26.54227351 33.03515625 28.2109375 C38.49153893 32.55564595 41.53522094 37.16745462 43 44 C43.66216418 51.54697383 43.48880356 58.81012304 41 66 C39 68 39 68 36 68.5 C30.65074703 68.37612256 26.15630157 65.12292494 22 62 C19.84250216 58.76375324 19.71639512 57.65605934 19.5859375 53.89453125 C19.54726562 52.91162109 19.50859375 51.92871094 19.46875 50.91601562 C19.4378125 49.89185547 19.406875 48.86769531 19.375 47.8125 C19.33632812 46.77673828 19.29765625 45.74097656 19.2578125 44.67382812 C19.16351704 42.11606378 19.07791798 39.55830713 19 37 C18.34 37 17.68 37 17 37 C16.98541748 37.60996826 16.97083496 38.21993652 16.95581055 38.84838867 C16.88105225 41.62871064 16.78448518 44.40786824 16.6875 47.1875 C16.66494141 48.14720703 16.64238281 49.10691406 16.61914062 50.09570312 C16.27099363 59.24247413 16.27099363 59.24247413 13 63 C11.0625 64.29296875 11.0625 64.29296875 9 65.1875 C6.42640288 66.33294569 4.37594974 67.4160335 2 69 C-1.07552448 68.84622378 -2.51884597 68.46396996 -4.75 66.3125 C-8.53967918 59.30159351 -7.99846484 48.69978038 -6.38671875 41.11328125 C-4.23441304 34.92184676 -0.62618414 30.4260004 5 27 C7.75390625 26.31640625 7.75390625 26.31640625 10 26 C13.875 30.75 13.875 30.75 15 33 C15.11614929 28.9169058 15.18723457 24.83423623 15.25 20.75 C15.28351563 19.59113281 15.31703125 18.43226562 15.3515625 17.23828125 C15.36445312 16.12324219 15.37734375 15.00820313 15.390625 13.859375 C15.4220459 12.31975098 15.4220459 12.31975098 15.45410156 10.74902344 C14.88055865 7.27693033 13.74401208 6.13340085 11 4 C8.19821626 3.30842045 8.19821626 3.30842045 5.25 3.25 C3.77273437 3.16492187 3.77273437 3.16492187 2.265625 3.078125 C1.51796875 3.05234375 0.7703125 3.0265625 0 3 C0 2.01 0 1.02 0 0 Z " fill="#53AFF3" transform="translate(83,43)"/>
<path d="M0 0 C2.31 0 4.62 0 7 0 C7.33 3.63 7.66 7.26 8 11 C8.33 10.67 8.66 10.34 9 10 C12.79276692 9.56900376 14.52137386 9.68454186 17.75 11.8125 C20.87808421 14.85369298 21.9334478 16.42004507 22.4375 20.8125 C22.33942654 25.64484674 20.38803669 27.69263085 17 31 C14.2761601 32.36191995 12.01903173 32.06161289 9 32 C7.12488426 32 5.24958447 32.01786704 3.375 32.0625 C1 32 1 32 0 31 C-0.08790975 28.70848583 -0.10694038 26.41427476 -0.09765625 24.12109375 C-0.0962413 23.4344313 -0.09482635 22.74776886 -0.09336853 22.04029846 C-0.08775479 19.83932199 -0.07520007 17.63844591 -0.0625 15.4375 C-0.05748676 13.94856917 -0.05292355 12.45963676 -0.04882812 10.97070312 C-0.03778093 7.31376925 -0.02050713 3.65689442 0 0 Z " fill="#FAFDFF" transform="translate(120,135)"/>
<path d="M0 0 C6.59276801 0.02012035 6.59276801 0.02012035 9.25390625 1.45703125 C10.5625 2.8125 10.5625 2.8125 12.25 5.375 C12.58 5.705 12.91 6.035 13.25 6.375 C13.92150004 10.93160742 13.99559846 15.08629142 11.25 18.9375 C7.22052456 22.21144879 5.30746849 21.88931883 0.25 21.375 C-0.08 24.675 -0.41 27.975 -0.75 31.375 C-3.06 31.375 -5.37 31.375 -7.75 31.375 C-7.77465622 27.12085377 -7.79283899 22.86674502 -7.80493164 18.61254883 C-7.80997101 17.16429927 -7.81680253 15.71605483 -7.82543945 14.26782227 C-7.83752247 12.19025412 -7.84323211 10.11275303 -7.84765625 8.03515625 C-7.85289307 6.78355713 -7.85812988 5.53195801 -7.86352539 4.24243164 C-7.65380362 -1.05473428 -4.69788957 0.12670657 0 0 Z " fill="#FBFDFF" transform="translate(48.75,144.625)"/>
<path d="M0 0 C2.75091975 6.2354181 3.21849594 12.36924147 3.3125 19.125 C3.35600586 20.17880859 3.35600586 20.17880859 3.40039062 21.25390625 C3.44248361 24.67962743 3.31066652 26.594314 1.19921875 29.3515625 C-3.09297959 32.5688053 -6.4343984 35 -12 35 C-15.08177384 26.91034367 -15.63281613 17.04131762 -12.375 8.9375 C-9.56227697 3.59133141 -6.32346855 0 0 0 Z " fill="#03577C" transform="translate(93,73)"/>
<path d="M0 0 C3.125 1.5 3.125 1.5 5 3 C4.66260373 5.530472 4.3938922 6.6818563 2.375 8.3125 C-0.94598174 9.27383682 -3.64617202 8.64496692 -7 8 C-7 8.66 -7 9.32 -7 10 C-6.24074219 10.24234375 -5.48148438 10.4846875 -4.69921875 10.734375 C-3.70535156 11.06953125 -2.71148437 11.4046875 -1.6875 11.75 C-0.70136719 12.07484375 0.28476562 12.3996875 1.30078125 12.734375 C4.2591855 14.12152837 5.39298236 15.1890628 7 18 C7.44963189 21.52211647 7.22232631 23.51088212 5.75 26.75 C3.40110085 29.77001319 1.38550341 30.80625481 -2.40234375 31.3359375 C-6.64742791 31.40134712 -9.32707384 31.36338012 -13.125 29.3125 C-15 27 -15 27 -15.3125 24.25 C-15.209375 23.5075 -15.10625 22.765 -15 22 C-12.6875 21.375 -12.6875 21.375 -10 21 C-9.01 21.66 -8.02 22.32 -7 23 C-5.0103005 23.39013716 -3.00980131 23.73202649 -1 24 C-1.16412502 22.02226205 -1.16412502 22.02226205 -2 20 C-3.95552794 19.04175334 -3.95552794 19.04175334 -6.3125 18.5625 C-9.49006264 17.609738 -11.01673711 16.98605241 -13.625 14.8125 C-15.53219282 10.91142378 -15.29000685 8.09214094 -14 4 C-10.91715726 -1.36146564 -5.53626386 -0.77811786 0 0 Z " fill="#F9FCFF" transform="translate(31,136)"/>
<path d="M0 0 C4.27729087 0.4867262 6.02058516 1.57796349 8.75 4.875 C9.34296875 5.57367188 9.9359375 6.27234375 10.546875 6.9921875 C13.53832205 11.12553101 13.18334865 15.42635627 13.1875 20.3125 C13.19974609 21.05951172 13.21199219 21.80652344 13.22460938 22.57617188 C13.23648566 27.08520243 12.85494007 30.80197773 11 35 C10.01 35.495 10.01 35.495 9 36 C6.43359375 34.85546875 6.43359375 34.85546875 3.4375 33.1875 C1.95056641 32.37345703 1.95056641 32.37345703 0.43359375 31.54296875 C-2 30 -2 30 -3 28 C-3.12606552 25.29985247 -3.19008309 22.63797862 -3.1875 19.9375 C-3.18741943 19.16978271 -3.18733887 18.40206543 -3.18725586 17.61108398 C-3.12579651 11.4994367 -2.78708987 5.57417975 0 0 Z " fill="#015679" transform="translate(109,73)"/>
<path d="M0 0 C3.77062132 2.07014504 7.005306 4.12142833 9 8 C9.56172694 12.33332214 9.29780107 14.45574287 7.1875 18.3125 C5.01107817 20.98638967 3.42651267 22.74186914 -0.05078125 23.37109375 C-4.31020603 23.49615458 -7.12290024 23.39700198 -10.5 20.625 C-14.17483665 16.76642152 -14.34320334 14.4157109 -14.28515625 9.2578125 C-13.85933373 5.88623144 -12.46522826 4.25979257 -10 2 C-6.73065722 -0.28853994 -3.9301848 -0.47162218 0 0 Z " fill="#F9FCFF" transform="translate(108,144)"/>
<path d="M0 0 C1.6875 1.1875 1.6875 1.1875 3.6875 4.1875 C4.00004378 6.91033905 3.82083428 9.43192486 3.6875 12.1875 C2.6875 13.1875 2.6875 13.1875 -0.03515625 13.28515625 C-1.68837891 13.26775391 -1.68837891 13.26775391 -3.375 13.25 C-5.03208984 13.23646484 -5.03208984 13.23646484 -6.72265625 13.22265625 C-7.57730469 13.21105469 -8.43195313 13.19945312 -9.3125 13.1875 C-8.9825 13.8475 -8.6525 14.5075 -8.3125 15.1875 C-7.60222656 15.17589844 -6.89195312 15.16429687 -6.16015625 15.15234375 C-5.24105469 15.14332031 -4.32195312 15.13429687 -3.375 15.125 C-2.45847656 15.11339844 -1.54195312 15.10179687 -0.59765625 15.08984375 C1.6875 15.1875 1.6875 15.1875 2.6875 16.1875 C2.72813832 17.85367115 2.730221 19.52138095 2.6875 21.1875 C-1.02669716 23.66363144 -5.00223112 23.87548522 -9.3125 23.1875 C-13.06462276 21.17247111 -14.94894095 19.73283858 -17.3125 16.1875 C-18.01170885 11.39060209 -18.02732085 7.41290718 -15.5625 3.1875 C-10.84260612 -1.00796123 -6.21311716 -2.18298711 0 0 Z " fill="#F1F9FF" transform="translate(175.3125,144.8125)"/>
<path d="M0 0 C2.31 0 4.62 0 7 0 C7 8.25 7 16.5 7 25 C8.32 25.33 9.64 25.66 11 26 C11 27.98 11 29.96 11 32 C5.04296875 32.390625 5.04296875 32.390625 3 32 C0.66761471 29.65629245 0.03275246 28.29085125 -0.34057617 24.97558594 C-0.32486572 23.82348633 -0.30915527 22.67138672 -0.29296875 21.484375 C-0.28330078 20.23398438 -0.27363281 18.98359375 -0.26367188 17.6953125 C-0.2259668 15.74238281 -0.2259668 15.74238281 -0.1875 13.75 C-0.16719727 11.77386719 -0.16719727 11.77386719 -0.14648438 9.7578125 C-0.11112551 6.50479679 -0.06177033 3.252604 0 0 Z " fill="#FDFEFF" transform="translate(145,135)"/>
<path d="M0 0 C1.5159375 0.0309375 1.5159375 0.0309375 3.0625 0.0625 C3.7225 0.0625 4.3825 0.0625 5.0625 0.0625 C7.39583333 0.0625 9.72916667 0.0625 12.0625 0.0625 C13.1875 4.8125 13.1875 4.8125 12.0625 7.0625 C9.74093403 7.46979228 7.4056213 7.80688677 5.0625 8.0625 C4.7325 12.3525 4.4025 16.6425 4.0625 21.0625 C1.7364143 21.44313221 -0.59805264 21.77519945 -2.9375 22.0625 C-4.52687556 20.47312444 -4.06731143 18.82350154 -4.0703125 16.625 C-4.07160156 15.73039063 -4.07289062 14.83578125 -4.07421875 13.9140625 C-4.06841797 12.50253906 -4.06841797 12.50253906 -4.0625 11.0625 C-4.06636719 10.12148437 -4.07023437 9.18046875 -4.07421875 8.2109375 C-4.07292969 7.31632813 -4.07164063 6.42171875 -4.0703125 5.5 C-4.06862061 4.26056641 -4.06862061 4.26056641 -4.06689453 2.99609375 C-3.85271089 -0.2045372 -3.25928308 0.06934645 0 0 Z " fill="#F6FBFF" transform="translate(79.9375,144.9375)"/>
<path d="M0 0 C3 0.125 3 0.125 4 1.125 C4.09880797 2.60152664 4.13079245 4.08267236 4.1328125 5.5625 C4.13474609 6.90441406 4.13474609 6.90441406 4.13671875 8.2734375 C4.13285156 9.21445313 4.12898438 10.15546875 4.125 11.125 C4.12886719 12.06601563 4.13273437 13.00703125 4.13671875 13.9765625 C4.13542969 14.87117187 4.13414063 15.76578125 4.1328125 16.6875 C4.13168457 17.51378906 4.13055664 18.34007812 4.12939453 19.19140625 C4 21.125 4 21.125 3 22.125 C0 22.25 0 22.25 -3 22.125 C-4.58937556 20.53562444 -4.12981143 18.88600154 -4.1328125 16.6875 C-4.13410156 15.79289063 -4.13539062 14.89828125 -4.13671875 13.9765625 C-4.13091797 12.56503906 -4.13091797 12.56503906 -4.125 11.125 C-4.12886719 10.18398437 -4.13273437 9.24296875 -4.13671875 8.2734375 C-4.13542969 7.37882813 -4.13414063 6.48421875 -4.1328125 5.5625 C-4.13112061 4.32306641 -4.13112061 4.32306641 -4.12939453 3.05859375 C-3.91367654 -0.16496561 -3.2895365 0.13706402 0 0 Z " fill="#F0F8FF" transform="translate(69,144.875)"/>
<path d="M0 0 C2.4375 0.1875 2.4375 0.1875 3.4375 1.1875 C3.625 3.625 3.625 3.625 3.4375 6.1875 C2.7775 6.8475 2.1175 7.5075 1.4375 8.1875 C-1.1875 7.8125 -1.1875 7.8125 -3.5625 7.1875 C-4.1875 4.8125 -4.1875 4.8125 -4.5625 2.1875 C-2.5625 0.1875 -2.5625 0.1875 0 0 Z " fill="#64BBFF" transform="translate(105.5625,151.8125)"/>
<path d="M0 0 C3 0.125 3 0.125 4 1.125 C4.125 3.625 4.125 3.625 4 6.125 C3 7.125 3 7.125 -0.0625 7.1875 C-1.031875 7.166875 -2.00125 7.14625 -3 7.125 C-3.38133299 5.1335944 -3.71325582 3.13220923 -4 1.125 C-3 0.125 -3 0.125 0 0 Z " fill="#ECF6FF" transform="translate(69,134.875)"/>
<path d="M0 0 C1.32 0 2.64 0 4 0 C4.33 1.98 4.66 3.96 5 6 C3.02 6.99 3.02 6.99 1 8 C0.01 7.34 -0.98 6.68 -2 6 C-1.125 1.125 -1.125 1.125 0 0 Z " fill="#6DBFFF" transform="translate(129,152)"/>
<path d="M0 0 C2.125 0.375 2.125 0.375 4 1 C4.38218767 2.65614657 4.71395102 4.32457024 5 6 C4 7 4 7 1.4375 7.0625 C0.2309375 7.0315625 0.2309375 7.0315625 -1 7 C-1.625 4.625 -1.625 4.625 -2 2 C-1.34 1.34 -0.68 0.68 0 0 Z " fill="#65BBFF" transform="translate(50,152)"/>
<path d="M0 0 C3.96 0 7.92 0 12 0 C11.67 0.66 11.34 1.32 11 2 C7.52674819 3.1577506 4.63932552 3.06866652 1 3 C0.67 2.01 0.34 1.02 0 0 Z " fill="#71C1FF" transform="translate(166,158)"/>
<path d="M0 0 C0 0.66 0 1.32 0 2 C-4.455 2.495 -4.455 2.495 -9 3 C-9 2.34 -9 1.68 -9 1 C-5.8035914 -0.06546953 -3.34252724 -0.07427838 0 0 Z " fill="#0B6088" transform="translate(66,45)"/>
<path d="M0 0 C0 0.66 0 1.32 0 2 C-2.3125 3.6875 -2.3125 3.6875 -5 5 C-5.99 4.67 -6.98 4.34 -8 4 C-3.375 0 -3.375 0 0 0 Z " fill="#095E85" transform="translate(67,52)"/>
<path d="M0 0 C5.75 0.875 5.75 0.875 8 2 C8 2.66 8 3.32 8 4 C2.25 3.125 2.25 3.125 0 2 C0 1.34 0 0.68 0 0 Z " fill="#075C82" transform="translate(58,37)"/>
</svg>
