<?xml version="1.0" standalone="no"?>
<!DOCTYPE svg PUBLIC "-//W3C//DTD SVG 20010904//EN"
 "http://www.w3.org/TR/2001/REC-SVG-20010904/DTD/svg10.dtd">
<svg version="1.0" xmlns="http://www.w3.org/2000/svg"
 width="512.000000pt" height="512.000000pt" viewBox="0 0 512.000000 512.000000"
 preserveAspectRatio="xMidYMid meet">

<g transform="translate(0.000000,512.000000) scale(0.100000,-0.100000)"
fill="#000000" stroke="none">
<path d="M605 4942 c-65 -22 -109 -55 -146 -105 -53 -73 -59 -114 -59 -409 l0
-268 -160 0 c-176 0 -206 -7 -228 -55 -17 -38 -17 -2852 0 -2890 25 -56 15
-55 678 -55 663 0 653 -1 678 55 24 51 4 112 -43 133 -19 9 -171 12 -575 12
l-550 0 0 1300 0 1300 100 0 100 0 0 -160 c0 -102 4 -168 12 -185 26 -57 -6
-55 918 -55 924 0 892 -2 918 55 8 17 12 83 12 185 l0 160 500 0 500 0 0
-1300 0 -1300 -550 0 c-404 0 -556 -3 -575 -12 -47 -21 -67 -82 -43 -133 24
-53 37 -55 418 -55 l350 0 0 -99 0 -99 -147 -4 c-141 -3 -151 -5 -215 -35 -93
-44 -151 -100 -196 -191 -35 -72 -37 -81 -37 -172 0 -91 2 -100 37 -172 45
-91 103 -147 196 -191 61 -29 76 -32 162 -32 86 0 101 3 162 32 93 44 151 100
196 191 37 76 37 76 41 223 l3 148 347 3 346 3 67 32 c93 44 151 100 196 191
l37 76 3 555 3 556 52 30 c28 17 66 49 84 73 60 79 63 105 63 514 l0 368 390
0 c418 0 430 1 456 51 20 40 20 458 0 498 -26 50 -38 51 -456 51 l-390 0 0 60
c0 32 -5 71 -12 85 -23 50 -48 55 -288 55 -240 0 -265 -5 -288 -55 -9 -19 -12
-211 -12 -754 0 -803 -1 -788 63 -873 18 -24 56 -56 85 -73 l52 -30 -3 -540
-2 -540 -24 -38 c-13 -21 -42 -50 -64 -65 l-40 -27 -334 -3 -333 -3 0 100 0
101 160 0 c176 0 206 7 228 55 17 38 17 2852 0 2890 -25 55 -19 55 -628 55
l-560 0 0 100 0 100 160 0 c240 0 244 4 238 232 -3 119 -7 151 -24 189 -31 66
-78 114 -142 146 l-57 28 -890 2 c-825 2 -894 1 -940 -15z m1464 -214 c-5 -18
-9 -242 -9 -500 l0 -468 -730 0 -730 0 0 463 c1 494 1 495 51 523 19 11 162
13 726 14 l702 0 -10 -32z m340 18 c36 -19 51 -55 51 -126 l0 -60 -100 0 -100
0 0 63 c1 68 15 103 51 123 31 17 64 17 98 0z m1651 -1652 l0 -666 -34 -34
c-46 -46 -86 -46 -132 0 l-34 34 0 666 0 666 100 0 100 0 0 -666z m860 366 l0
-100 -330 0 -330 0 0 100 0 100 330 0 330 0 0 -100z m-2062 -2832 c-3 -119 -5
-137 -27 -171 -13 -21 -42 -50 -64 -65 -56 -37 -153 -39 -210 -3 -110 68 -128
220 -37 311 50 50 79 58 223 59 l119 1 -4 -132z"/>
<path d="M851 4546 c-67 -37 -65 -143 4 -174 19 -9 148 -12 475 -12 482 0 490
1 516 51 27 52 8 115 -41 137 -39 18 -921 16 -954 -2z"/>
<path d="M851 4146 c-67 -37 -65 -143 4 -174 19 -9 148 -12 475 -12 482 0 490
1 516 51 27 52 8 115 -41 137 -39 18 -921 16 -954 -2z"/>
<path d="M2511 3746 c-87 -48 -50 -186 49 -186 51 0 100 49 100 99 0 75 -83
124 -149 87z"/>
<path d="M2911 3746 c-87 -48 -50 -186 49 -186 51 0 100 49 100 99 0 75 -83
124 -149 87z"/>
<path d="M451 3346 c-52 -29 -50 -1 -51 -883 0 -617 3 -829 12 -848 26 -58
-42 -55 1318 -55 1360 0 1292 -3 1318 55 17 37 17 1653 0 1690 -26 58 42 55
-1320 55 -1021 -1 -1257 -3 -1277 -14z m2409 -886 l0 -700 -1130 0 -1130 0 0
700 0 700 1130 0 1130 0 0 -700z"/>
<path d="M1682 2947 c-18 -8 -70 -103 -198 -359 -96 -191 -178 -348 -182 -348
-4 0 -28 21 -52 46 -69 70 -81 74 -235 74 -149 0 -182 -9 -203 -55 -16 -34
-15 -60 2 -94 22 -41 55 -51 169 -51 l102 0 85 -86 c115 -115 148 -131 208
-100 21 11 52 65 137 235 60 122 113 221 117 221 3 0 10 -9 13 -20 10 -31 57
-50 125 -50 l60 0 0 -160 c0 -174 7 -203 51 -226 35 -18 63 -18 97 0 15 8 110
98 212 200 l185 186 102 0 c114 0 147 10 169 51 27 52 8 115 -41 137 -34 16
-288 16 -318 1 -12 -6 -75 -63 -139 -127 l-118 -117 0 88 c0 136 -26 167 -140
167 l-60 0 0 160 c0 102 -4 168 -12 185 -21 47 -85 67 -136 42z"/>
<path d="M2281 2946 c-47 -26 -63 -84 -37 -135 23 -43 54 -51 201 -51 147 0
178 8 201 51 27 52 8 115 -41 137 -37 17 -292 16 -324 -2z"/>
<path d="M851 2746 c-47 -26 -63 -84 -37 -135 23 -43 54 -51 201 -51 147 0
178 8 201 51 27 52 8 115 -41 137 -37 17 -292 16 -324 -2z"/>
<path d="M1681 1346 c-87 -48 -50 -186 49 -186 51 0 100 49 100 99 0 75 -83
124 -149 87z"/>
</g>
</svg>
