<?xml version="1.0" encoding="UTF-8"?>
<svg version="1.1" xmlns="http://www.w3.org/2000/svg" width="512" height="512">
<path d="M0 0 C1.77494663 -0.00870482 3.54988576 -0.01907465 5.32481384 -0.03097534 C10.12667169 -0.05766672 14.92821385 -0.05892257 19.73013139 -0.05384874 C23.74825319 -0.05170296 27.76631195 -0.06149241 31.78442019 -0.07105958 C41.26973995 -0.09321994 50.75490128 -0.09414207 60.24023438 -0.08203125 C70.00326438 -0.06995687 79.76571754 -0.09456673 89.52864915 -0.13717139 C97.93068434 -0.17247973 106.33253657 -0.18439405 114.73464316 -0.1778959 C119.74403466 -0.17428148 124.75301477 -0.17942834 129.76233864 -0.20732498 C134.4765133 -0.2325974 139.1897935 -0.22848686 143.90395546 -0.2025032 C145.62597464 -0.19779717 147.34805791 -0.2031492 149.07000351 -0.21974945 C160.22921992 -0.31950312 169.61271201 0.54611834 178.446805 8.28931236 C180.04093944 9.94410205 181.24704417 11.60087019 182.46166992 13.54931641 C182.82446045 14.12351318 183.18725098 14.69770996 183.56103516 15.28930664 C187.21629677 22.2426012 187.10442607 29.39590789 187.03808594 37.05273438 C187.02410638 39.30957498 187.05850914 41.5623486 187.09643555 43.81884766 C187.09738598 45.26546325 187.09553201 46.71208399 187.09057617 48.15869141 C187.09166382 50.10727051 187.09166382 50.10727051 187.09277344 52.09521484 C186.2815487 56.53514043 185.15413992 57.9772761 181.46166992 60.54931641 C178.53780701 60.98832069 176.22126047 61.13890538 173.31713867 61.03759766 C172.54735184 61.03052292 171.777565 61.02344818 170.98445129 61.01615906 C168.53834689 60.98828566 166.09457608 60.92556777 163.64916992 60.86181641 C161.98579165 60.83672408 160.3223773 60.81391254 158.65893555 60.79345703 C154.59156973 60.74274175 150.52921464 60.6448984 146.46166992 60.54931641 C146.46166992 67.14931641 146.46166992 73.74931641 146.46166992 80.54931641 C147.89129562 80.53821335 149.32092133 80.52711029 150.79386902 80.51567078 C164.25750353 80.4143741 177.72109845 80.33908837 191.18502331 80.29025555 C198.10722859 80.26448144 205.02914927 80.22934679 211.95117188 80.17211914 C218.62960543 80.11693171 225.30768204 80.08790575 231.98635292 80.07493019 C234.53611217 80.0656817 237.08585498 80.04762181 239.63548851 80.02066612 C243.20315083 79.98444282 246.76958613 79.97936853 250.33740234 79.98168945 C251.39476089 79.96371307 252.45211945 79.94573669 253.54151917 79.92721558 C254.5160202 79.9340889 255.49052124 79.94096222 256.49455261 79.94804382 C257.75971348 79.94113038 257.75971348 79.94113038 259.05043316 79.93407726 C262.89302451 80.9145337 264.18372224 82.2937084 266.46166992 85.54931641 C267.20244833 89.40589084 267.13593316 93.20946146 267.09658813 97.12646484 C267.10438809 98.31143932 267.11218804 99.4964138 267.12022436 100.7172966 C267.13671966 104.00311858 267.13078107 107.28801733 267.11529326 110.5738163 C267.10398566 114.11855617 267.12143946 117.66317072 267.13519287 121.20788574 C267.15743629 128.15060683 267.1526193 135.09305778 267.13812967 142.03578949 C267.12684171 147.67781289 267.12530459 153.31976054 267.13074875 158.96179199 C267.13151491 159.76452569 267.13228108 160.56725938 267.13307046 161.39431834 C267.13466907 163.02501204 267.13629014 164.65570571 267.13793342 166.28639936 C267.15219415 181.58058972 267.13579316 196.87463027 267.10893159 212.16879606 C267.08659248 225.29440912 267.09047252 238.41980109 267.11352539 251.54541016 C267.14027772 266.78453335 267.15082082 282.02352522 267.13546407 297.26266861 C267.13387131 298.88739266 267.13229946 300.51211673 267.13074875 302.13684082 C267.12997737 302.9362543 267.12920599 303.73566778 267.12841124 304.55930591 C267.12409253 310.19512758 267.13138446 315.83086602 267.14314651 321.4666748 C267.15716379 328.33409437 267.15338809 335.20122817 267.1267428 342.06861496 C267.11359386 345.57314026 267.10846979 349.07718895 267.12498856 352.58171082 C267.13859615 356.37900946 267.12158283 360.17495612 267.09658813 363.97216797 C267.10774174 365.08256817 267.11889535 366.19296837 267.13038695 367.33701706 C267.03528289 374.75538888 267.03528289 374.75538888 264.15826988 378.7374115 C260.55888875 381.15591496 257.5035445 381.18363673 253.31713867 381.03759766 C252.54735184 381.03052292 251.777565 381.02344818 250.98445129 381.01615906 C248.53834689 380.98828566 246.09457608 380.92556777 243.64916992 380.86181641 C241.98579165 380.83672408 240.3223773 380.81391254 238.65893555 380.79345703 C234.59156973 380.74274175 230.52921464 380.6448984 226.46166992 380.54931641 C226.46166992 387.14931641 226.46166992 393.74931641 226.46166992 400.54931641 C234.14668562 400.46353992 241.83152219 400.36964913 249.51625824 400.26178932 C253.0852628 400.212014 256.65424043 400.16568374 260.22338867 400.12744141 C263.67298305 400.0903497 267.12234121 400.04392804 270.57173157 399.9912529 C272.51685815 399.96392076 274.46211035 399.94605222 276.40734863 399.92837524 C285.34274411 399.78050127 293.32065822 399.55425807 300.46166992 393.54931641 C305.74914808 386.60633391 305.62338549 379.02316332 305.73388672 370.69189453 C305.75009567 369.7155455 305.76630463 368.73919647 305.78300476 367.73326111 C305.92262559 358.77647045 306.00118487 349.81874741 306.06192303 340.86110687 C306.10300194 334.84801032 306.16366793 328.83652909 306.27099609 322.82421875 C306.37457799 317.00106406 306.42929386 311.17935328 306.44938087 305.35533142 C306.46532922 303.13839139 306.4985926 300.9215054 306.54953575 298.70509338 C307.41733359 287.14082761 307.41733359 287.14082761 303.2875061 276.96923828 C300.6963859 275.32331444 300.6963859 275.32331444 297.94929504 274.4564209 C293.7246718 272.91592563 291.60761119 269.35318115 289.46166992 265.54931641 C288.94946899 264.65290436 288.43726807 263.75649231 287.9095459 262.83291626 C285.39115424 256.83011649 286.02695451 250.18223957 286.04174805 243.7890625 C286.0344015 242.28876618 286.02581356 240.7884755 286.01608276 239.28819275 C285.99392695 235.22843329 285.99093284 231.16887714 285.99283028 227.10906553 C285.99295018 223.71669428 285.98437857 220.32436579 285.97605276 216.93200648 C285.95684252 208.93039048 285.95392722 200.92887882 285.96069336 192.92724609 C285.96734266 184.67514382 285.94442887 176.42348757 285.90737963 168.17147577 C285.87669735 161.07999387 285.86532068 153.98865563 285.86921644 146.89710867 C285.87128435 142.66426426 285.86579759 138.43176752 285.84132385 134.19898605 C285.81908143 130.22115661 285.82091287 126.2440546 285.84125137 122.266222 C285.8446652 120.80733362 285.8395561 119.34839646 285.82526779 117.88957405 C285.80709987 115.89711157 285.82281817 113.9044262 285.84020996 111.91195679 C285.83949745 110.79738287 285.83878494 109.68280895 285.83805084 108.53446007 C286.66355402 104.58293636 288.38332329 103.0706108 291.46166992 100.54931641 C293.92749023 99.91439819 293.92749023 99.91439819 296.53979492 99.90234375 C297.52431641 99.88658295 298.50883789 99.87082214 299.52319336 99.85458374 C300.57539063 99.8647049 301.62758789 99.87482605 302.71166992 99.88525391 C304.34797363 99.87807846 304.34797363 99.87807846 306.01733398 99.87075806 C308.32040857 99.86736028 310.62353147 99.87655398 312.92651367 99.89746094 C316.44974409 99.92422581 319.96978848 99.89770639 323.49291992 99.86572266 C325.73251028 99.86902677 327.97209866 99.87543304 330.21166992 99.88525391 C331.26386719 99.87513275 332.31606445 99.8650116 333.40014648 99.85458374 C334.38466797 99.87034454 335.36918945 99.88610535 336.38354492 99.90234375 C337.67663574 99.9083107 337.67663574 99.9083107 338.99584961 99.91439819 C342.71430701 100.87185495 344.18224167 102.49802244 346.46166992 105.54931641 C346.82938237 108.3880565 346.94797796 110.56751792 346.77416992 113.36181641 C346.75161133 114.0546875 346.72905273 114.74755859 346.70581055 115.46142578 C346.64729653 117.15833214 346.55762472 118.85411502 346.46166992 120.54931641 C347.46534103 120.53821335 348.46901215 120.52711029 349.50309753 120.51567078 C358.96392002 120.4142917 368.42463224 120.33934962 377.88587475 120.29025555 C382.74999322 120.264167 387.61367305 120.22878257 392.47753906 120.17211914 C397.17191691 120.11777278 401.86587299 120.08789028 406.56054115 120.07493019 C408.35114494 120.065695 410.14172577 120.04766048 411.93214989 120.02066612 C414.44143841 119.9843397 416.94898673 119.97937237 419.45849609 119.98168945 C420.19792953 119.96371307 420.93736298 119.94573669 421.69920349 119.92721558 C425.53005424 119.96546356 427.32494837 120.44685507 430.4214325 122.76741028 C432.61026372 125.75192713 433.09187201 126.99311155 433.10864258 130.62744141 C433.13228378 132.10422363 433.13228378 132.10422363 433.15640259 133.61083984 C433.14628143 134.66303711 433.13616028 135.71523437 433.12573242 136.79931641 C433.13051605 137.89018555 433.13529968 138.98105469 433.14022827 140.10498047 C433.14362605 142.40805506 433.13443235 144.71117796 433.11352539 147.01416016 C433.08676052 150.53739058 433.11327994 154.05743496 433.14526367 157.58056641 C433.14195956 159.82015677 433.13555329 162.05974514 433.12573242 164.29931641 C433.13585358 165.35151367 433.14597473 166.40371094 433.15640259 167.48779297 C433.14064178 168.47231445 433.12488098 169.45683594 433.10864258 170.47119141 C433.10466461 171.33325195 433.10068665 172.1953125 433.09658813 173.08349609 C432.13831834 176.80511106 430.51343271 178.26227609 427.46166992 180.54931641 C424.58820377 181.01927666 422.32033081 181.18651747 419.45849609 181.11694336 C418.27234207 181.11803856 418.27234207 181.11803856 417.06222534 181.11915588 C414.45898877 181.11568362 411.85756104 181.07684211 409.25463867 181.03759766 C407.44575478 181.02826819 405.63685822 181.0211527 403.82795715 181.01615906 C399.0748892 180.99709971 394.32258939 180.94800828 389.56982422 180.89263916 C384.71682119 180.84142361 379.86369363 180.8186401 375.01049805 180.79345703 C365.49388515 180.73988836 355.9778415 180.65458854 346.46166992 180.54931641 C346.48165543 181.97513031 346.48165543 181.97513031 346.50204468 183.42974854 C346.6242105 192.43213508 346.71387278 201.43435125 346.77254295 210.43738174 C346.80372142 215.06489126 346.84594374 219.69172624 346.91430664 224.31884766 C346.97998569 228.79282919 347.0154771 233.26616615 347.03093338 237.74059296 C347.04193345 239.43892297 347.06341232 241.13722174 347.09605026 242.83527374 C347.30371292 254.09763594 346.66162045 263.77507471 338.61239624 272.56988525 C335.25766938 275.70351061 331.56512621 277.51810554 327.46166992 279.54931641 C327.45947008 280.38447265 327.45947008 280.38447265 327.4572258 281.23650074 C327.42006444 294.82649707 327.36067766 308.41624281 327.27776718 322.00603962 C327.23833405 328.57817363 327.20612492 335.15017449 327.19067383 341.72241211 C327.17548018 348.07033326 327.14098561 354.41788822 327.0933609 360.76564598 C327.07857519 363.18197628 327.07063053 365.59835888 327.06978607 368.01473427 C327.0674063 371.41117578 327.0402436 374.80661359 327.00756836 378.20288086 C327.01259872 379.19191406 327.01762909 380.18094727 327.02281189 381.19995117 C326.85815469 392.33281614 323.15809191 401.48712387 315.46166992 409.54931641 C304.80674532 419.72084178 293.49141271 421.14588567 279.29370117 420.93994141 C277.76243333 420.93246345 276.23115579 420.92677789 274.69987488 420.92279053 C270.70649914 420.90765614 266.71372298 420.8684832 262.72058105 420.82397461 C258.6311046 420.7827554 254.54152946 420.76472314 250.4519043 420.74462891 C242.45488705 420.70197403 234.45835347 420.633875 226.46166992 420.54931641 C226.49309082 421.78065308 226.49309082 421.78065308 226.52514648 423.03686523 C226.59406572 426.13626815 226.64382614 429.23527555 226.68139648 432.33520508 C226.71097126 434.31504548 226.76184525 436.29453141 226.81323242 438.27392578 C226.94032049 450.82387299 224.23009634 460.3641727 215.46166992 469.54931641 C206.23453816 478.35782594 196.61122669 481.17505942 184.09692383 481.02001953 C172.26969485 480.55181169 163.62059885 476.00094691 155.48901367 467.48291016 C146.90895648 457.29978495 145.34295943 446.53142702 146.23852539 433.62011719 C147.39862975 422.85424716 153.62643813 414.5492389 161.71166992 407.73681641 C171.49412506 400.77252157 180.88247941 399.99384067 192.64916992 400.29931641 C193.9961482 400.31943751 195.34315592 400.33767825 196.69018555 400.35400391 C199.94766283 400.40070609 203.20476524 400.4724321 206.46166992 400.54931641 C206.46166992 393.94931641 206.46166992 387.34931641 206.46166992 380.54931641 C204.27646729 380.57550049 202.09126465 380.60168457 199.83984375 380.62866211 C192.61557832 380.71155393 185.39129173 380.766757 178.16667652 380.80837727 C173.78680556 380.83445828 169.4074223 380.86982821 165.02783203 380.92651367 C160.8002869 380.98088804 156.57321049 381.0107482 152.34534264 381.02370262 C150.73336089 381.03293289 149.12140447 381.05095799 147.50962257 381.07796669 C145.24934328 381.11433188 142.99099407 381.11925905 140.73046875 381.11694336 C139.44473465 381.12804642 138.15900055 381.13914948 136.83430481 381.15058899 C132.52640233 380.38257711 131.0351907 379.04285258 128.46166992 375.54931641 C128.46166992 373.89931641 128.46166992 372.24931641 128.46166992 370.54931641 C120.21166992 370.54931641 111.96166992 370.54931641 103.46166992 370.54931641 C103.46166992 372.19931641 103.46166992 373.84931641 103.46166992 375.54931641 C101.38466535 378.66482326 99.81199103 380.27261126 96.07885742 381.03759766 C91.50815899 381.27636548 89.15169218 381.03233199 85.33666992 378.36181641 C83.46166992 375.54931641 83.46166992 375.54931641 83.46166992 370.54931641 C75.21166992 370.54931641 66.96166992 370.54931641 58.46166992 370.54931641 C58.46166992 372.19931641 58.46166992 373.84931641 58.46166992 375.54931641 C56.7265625 378.32138062 56.7265625 378.32138062 53.46166992 380.54931641 C49.38538607 381.2951828 45.35773519 381.23202101 41.22338867 381.19628906 C39.98223297 381.20505066 38.74107727 381.21381226 37.46231079 381.22283936 C34.06514825 381.24105984 30.66951089 381.23681336 27.27243423 381.22094393 C23.71399162 381.20826548 20.1556132 381.22003041 16.59716797 381.22787476 C10.6218702 381.23696574 4.64688165 381.2249982 -1.32836914 381.20117188 C-8.23198254 381.17396121 -15.13485759 381.1827758 -22.0384531 381.2103039 C-27.9707066 381.23301001 -33.9027381 381.23618786 -39.83502102 381.22311056 C-43.37594642 381.21532412 -46.916525 381.21425169 -50.45742798 381.230793 C-54.40525914 381.24794779 -58.35226645 381.22415734 -62.30004883 381.19628906 C-63.47111176 381.20641022 -64.64217468 381.21653137 -65.84872437 381.22695923 C-66.92538361 381.21286011 -68.00204285 381.19876099 -69.11132812 381.18423462 C-70.51054756 381.18140693 -70.51054756 381.18140693 -71.93803406 381.17852211 C-75.90833271 380.21781051 -77.20870108 378.92004974 -79.53833008 375.54931641 C-80.27636042 371.69198521 -80.2125965 367.88948846 -80.17324829 363.97216797 C-80.18104824 362.78719349 -80.1888482 361.60221901 -80.19688451 360.38133621 C-80.21337982 357.09551424 -80.20744123 353.81061548 -80.19195342 350.52481651 C-80.18064581 346.98007664 -80.19809962 343.43546209 -80.21185303 339.89074707 C-80.23409645 332.94802599 -80.22927945 326.00557503 -80.21478982 319.06284332 C-80.20350187 313.42081992 -80.20196474 307.77887227 -80.20740891 302.13684082 C-80.20817507 301.33410712 -80.20894124 300.53137343 -80.20973062 299.70431447 C-80.21132923 298.07362077 -80.2129503 296.4429271 -80.21459357 294.81223345 C-80.2288543 279.51804309 -80.21245331 264.22400254 -80.18559174 248.92983675 C-80.16325263 235.80422369 -80.16713267 222.67883172 -80.19018555 209.55322266 C-80.21693788 194.31409946 -80.22748098 179.0751076 -80.21212423 163.8359642 C-80.21053147 162.21124015 -80.20895961 160.58651608 -80.20740891 158.96179199 C-80.20663753 158.16237851 -80.20586615 157.36296504 -80.2050714 156.53932691 C-80.20075268 150.90350523 -80.20804462 145.26776679 -80.21980667 139.63195801 C-80.23382395 132.76453844 -80.23004825 125.89740464 -80.20340295 119.03001785 C-80.19025402 115.52549256 -80.18512994 112.02144386 -80.20164871 108.516922 C-80.21525631 104.71962335 -80.19824299 100.92367669 -80.17324829 97.12646484 C-80.1844019 96.01606464 -80.19555551 94.90566444 -80.2070471 93.76161575 C-80.11194305 86.34324393 -80.11194305 86.34324393 -77.23493004 82.36122131 C-73.63554891 79.94271785 -70.58020465 79.91499609 -66.39379883 80.06103516 C-65.62401199 80.06810989 -64.85422516 80.07518463 -64.06111145 80.08247375 C-61.61500705 80.11034716 -59.17123624 80.17306504 -56.72583008 80.23681641 C-55.06245181 80.26190873 -53.39903746 80.28472028 -51.7355957 80.30517578 C-47.66894851 80.3601497 -43.60403419 80.44636714 -39.53833008 80.54931641 C-39.55165375 79.84933533 -39.56497742 79.14935425 -39.57870483 78.42816162 C-39.6997168 71.78038259 -39.79067235 65.13291786 -39.84920311 58.48427963 C-39.88030854 55.06732346 -39.92238703 51.65128908 -39.9909668 48.23486328 C-40.06958597 44.29292447 -40.09791992 40.35133816 -40.12426758 36.40869141 C-40.17071915 34.59857574 -40.17071915 34.59857574 -40.21810913 32.75189209 C-40.22172035 23.50605043 -37.96273838 15.8029323 -31.91439819 8.62103271 C-22.59642041 -0.05212505 -12.02076404 -0.03899604 0 0 Z M170.98120117 428.16650391 C167.33966065 433.08309363 166.69531204 437.59940064 166.98510742 443.64697266 C167.99816226 449.8166427 171.08034282 453.84402637 176.02416992 457.54931641 C181.26718755 460.46320522 186.63884698 460.50541923 192.46166992 459.54931641 C198.19020969 457.49194957 201.45519173 453.82102786 204.55151367 448.70947266 C207.03605776 442.81267918 206.58236877 436.45083784 206.52416992 430.17431641 C206.5196582 429.24748047 206.51514648 428.32064453 206.51049805 427.36572266 C206.49878566 425.09351932 206.48238365 422.82145253 206.46166992 420.54931641 C203.29508329 420.49050837 200.12863999 420.45545235 196.96166992 420.42431641 C196.07479492 420.40755859 195.18791992 420.39080078 194.27416992 420.37353516 C185.41082889 420.30836353 177.30531226 421.25837201 170.98120117 428.16650391 Z " fill="#B2F0FE" transform="translate(79.538330078125,15.45068359375)"/>
<path d="M0 0 C1.77494663 -0.00870482 3.54988576 -0.01907465 5.32481384 -0.03097534 C10.12667169 -0.05766672 14.92821385 -0.05892257 19.73013139 -0.05384874 C23.74825319 -0.05170296 27.76631195 -0.06149241 31.78442019 -0.07105958 C41.26973995 -0.09321994 50.75490128 -0.09414207 60.24023438 -0.08203125 C70.00326438 -0.06995687 79.76571754 -0.09456673 89.52864915 -0.13717139 C97.93068434 -0.17247973 106.33253657 -0.18439405 114.73464316 -0.1778959 C119.74403466 -0.17428148 124.75301477 -0.17942834 129.76233864 -0.20732498 C134.4765133 -0.2325974 139.1897935 -0.22848686 143.90395546 -0.2025032 C145.62597464 -0.19779717 147.34805791 -0.2031492 149.07000351 -0.21974945 C160.22921992 -0.31950312 169.61271201 0.54611834 178.446805 8.28931236 C180.04093944 9.94410205 181.24704417 11.60087019 182.46166992 13.54931641 C182.82446045 14.12351318 183.18725098 14.69770996 183.56103516 15.28930664 C187.21629677 22.2426012 187.10442607 29.39590789 187.03808594 37.05273438 C187.02410638 39.30957498 187.05850914 41.5623486 187.09643555 43.81884766 C187.09738598 45.26546325 187.09553201 46.71208399 187.09057617 48.15869141 C187.09166382 50.10727051 187.09166382 50.10727051 187.09277344 52.09521484 C186.2815487 56.53514043 185.15413992 57.9772761 181.46166992 60.54931641 C178.53780701 60.98832069 176.22126047 61.13890538 173.31713867 61.03759766 C172.54735184 61.03052292 171.777565 61.02344818 170.98445129 61.01615906 C168.53834689 60.98828566 166.09457608 60.92556777 163.64916992 60.86181641 C161.98579165 60.83672408 160.3223773 60.81391254 158.65893555 60.79345703 C154.59156973 60.74274175 150.52921464 60.6448984 146.46166992 60.54931641 C146.46166992 67.14931641 146.46166992 73.74931641 146.46166992 80.54931641 C147.89129562 80.53821335 149.32092133 80.52711029 150.79386902 80.51567078 C164.25750353 80.4143741 177.72109845 80.33908837 191.18502331 80.29025555 C198.10722859 80.26448144 205.02914927 80.22934679 211.95117188 80.17211914 C218.62960543 80.11693171 225.30768204 80.08790575 231.98635292 80.07493019 C234.53611217 80.0656817 237.08585498 80.04762181 239.63548851 80.02066612 C243.20315083 79.98444282 246.76958613 79.97936853 250.33740234 79.98168945 C251.39476089 79.96371307 252.45211945 79.94573669 253.54151917 79.92721558 C254.5160202 79.9340889 255.49052124 79.94096222 256.49455261 79.94804382 C257.75971348 79.94113038 257.75971348 79.94113038 259.05043316 79.93407726 C262.89302451 80.9145337 264.18372224 82.2937084 266.46166992 85.54931641 C267.20244833 89.40589084 267.13593316 93.20946146 267.09658813 97.12646484 C267.10438809 98.31143932 267.11218804 99.4964138 267.12022436 100.7172966 C267.13671966 104.00311858 267.13078107 107.28801733 267.11529326 110.5738163 C267.10398566 114.11855617 267.12143946 117.66317072 267.13519287 121.20788574 C267.15743629 128.15060683 267.1526193 135.09305778 267.13812967 142.03578949 C267.12684171 147.67781289 267.12530459 153.31976054 267.13074875 158.96179199 C267.13151491 159.76452569 267.13228108 160.56725938 267.13307046 161.39431834 C267.13466907 163.02501204 267.13629014 164.65570571 267.13793342 166.28639936 C267.15219415 181.58058972 267.13579316 196.87463027 267.10893159 212.16879606 C267.08659248 225.29440912 267.09047252 238.41980109 267.11352539 251.54541016 C267.14027772 266.78453335 267.15082082 282.02352522 267.13546407 297.26266861 C267.13387131 298.88739266 267.13229946 300.51211673 267.13074875 302.13684082 C267.12997737 302.9362543 267.12920599 303.73566778 267.12841124 304.55930591 C267.12409253 310.19512758 267.13138446 315.83086602 267.14314651 321.4666748 C267.15716379 328.33409437 267.15338809 335.20122817 267.1267428 342.06861496 C267.11359386 345.57314026 267.10846979 349.07718895 267.12498856 352.58171082 C267.13859615 356.37900946 267.12158283 360.17495612 267.09658813 363.97216797 C267.10774174 365.08256817 267.11889535 366.19296837 267.13038695 367.33701706 C267.03528289 374.75538888 267.03528289 374.75538888 264.15826988 378.7374115 C260.55888875 381.15591496 257.5035445 381.18363673 253.31713867 381.03759766 C252.54735184 381.03052292 251.777565 381.02344818 250.98445129 381.01615906 C248.53834689 380.98828566 246.09457608 380.92556777 243.64916992 380.86181641 C241.98579165 380.83672408 240.3223773 380.81391254 238.65893555 380.79345703 C234.59156973 380.74274175 230.52921464 380.6448984 226.46166992 380.54931641 C226.46166992 387.14931641 226.46166992 393.74931641 226.46166992 400.54931641 C234.14668562 400.46353992 241.83152219 400.36964913 249.51625824 400.26178932 C253.0852628 400.212014 256.65424043 400.16568374 260.22338867 400.12744141 C263.67298305 400.0903497 267.12234121 400.04392804 270.57173157 399.9912529 C272.51685815 399.96392076 274.46211035 399.94605222 276.40734863 399.92837524 C285.34274411 399.78050127 293.32065822 399.55425807 300.46166992 393.54931641 C305.74914808 386.60633391 305.62338549 379.02316332 305.73388672 370.69189453 C305.75009567 369.7155455 305.76630463 368.73919647 305.78300476 367.73326111 C305.92262559 358.77647045 306.00118487 349.81874741 306.06192303 340.86110687 C306.10300194 334.84801032 306.16366793 328.83652909 306.27099609 322.82421875 C306.37457799 317.00106406 306.42929386 311.17935328 306.44938087 305.35533142 C306.46532922 303.13839139 306.4985926 300.9215054 306.54953575 298.70509338 C307.41733359 287.14082761 307.41733359 287.14082761 303.2875061 276.96923828 C300.6963859 275.32331444 300.6963859 275.32331444 297.94929504 274.4564209 C293.7246718 272.91592563 291.60761119 269.35318115 289.46166992 265.54931641 C288.94946899 264.65290436 288.43726807 263.75649231 287.9095459 262.83291626 C285.39115424 256.83011649 286.02695451 250.18223957 286.04174805 243.7890625 C286.0344015 242.28876618 286.02581356 240.7884755 286.01608276 239.28819275 C285.99392695 235.22843329 285.99093284 231.16887714 285.99283028 227.10906553 C285.99295018 223.71669428 285.98437857 220.32436579 285.97605276 216.93200648 C285.95684252 208.93039048 285.95392722 200.92887882 285.96069336 192.92724609 C285.96734266 184.67514382 285.94442887 176.42348757 285.90737963 168.17147577 C285.87669735 161.07999387 285.86532068 153.98865563 285.86921644 146.89710867 C285.87128435 142.66426426 285.86579759 138.43176752 285.84132385 134.19898605 C285.81908143 130.22115661 285.82091287 126.2440546 285.84125137 122.266222 C285.8446652 120.80733362 285.8395561 119.34839646 285.82526779 117.88957405 C285.80709987 115.89711157 285.82281817 113.9044262 285.84020996 111.91195679 C285.83949745 110.79738287 285.83878494 109.68280895 285.83805084 108.53446007 C286.66355402 104.58293636 288.38332329 103.0706108 291.46166992 100.54931641 C293.92749023 99.91439819 293.92749023 99.91439819 296.53979492 99.90234375 C297.52431641 99.88658295 298.50883789 99.87082214 299.52319336 99.85458374 C300.57539063 99.8647049 301.62758789 99.87482605 302.71166992 99.88525391 C304.34797363 99.87807846 304.34797363 99.87807846 306.01733398 99.87075806 C308.32040857 99.86736028 310.62353147 99.87655398 312.92651367 99.89746094 C316.44974409 99.92422581 319.96978848 99.89770639 323.49291992 99.86572266 C325.73251028 99.86902677 327.97209866 99.87543304 330.21166992 99.88525391 C331.26386719 99.87513275 332.31606445 99.8650116 333.40014648 99.85458374 C334.38466797 99.87034454 335.36918945 99.88610535 336.38354492 99.90234375 C337.67663574 99.9083107 337.67663574 99.9083107 338.99584961 99.91439819 C342.71430701 100.87185495 344.18224167 102.49802244 346.46166992 105.54931641 C346.82938237 108.3880565 346.94797796 110.56751792 346.77416992 113.36181641 C346.75161133 114.0546875 346.72905273 114.74755859 346.70581055 115.46142578 C346.64729653 117.15833214 346.55762472 118.85411502 346.46166992 120.54931641 C347.46534103 120.53821335 348.46901215 120.52711029 349.50309753 120.51567078 C358.96392002 120.4142917 368.42463224 120.33934962 377.88587475 120.29025555 C382.74999322 120.264167 387.61367305 120.22878257 392.47753906 120.17211914 C397.17191691 120.11777278 401.86587299 120.08789028 406.56054115 120.07493019 C408.35114494 120.065695 410.14172577 120.04766048 411.93214989 120.02066612 C414.44143841 119.9843397 416.94898673 119.97937237 419.45849609 119.98168945 C420.19792953 119.96371307 420.93736298 119.94573669 421.69920349 119.92721558 C425.53005424 119.96546356 427.32494837 120.44685507 430.4214325 122.76741028 C432.61026372 125.75192713 433.09187201 126.99311155 433.10864258 130.62744141 C433.13228378 132.10422363 433.13228378 132.10422363 433.15640259 133.61083984 C433.14628143 134.66303711 433.13616028 135.71523437 433.12573242 136.79931641 C433.13051605 137.89018555 433.13529968 138.98105469 433.14022827 140.10498047 C433.14362605 142.40805506 433.13443235 144.71117796 433.11352539 147.01416016 C433.08676052 150.53739058 433.11327994 154.05743496 433.14526367 157.58056641 C433.14195956 159.82015677 433.13555329 162.05974514 433.12573242 164.29931641 C433.13585358 165.35151367 433.14597473 166.40371094 433.15640259 167.48779297 C433.14064178 168.47231445 433.12488098 169.45683594 433.10864258 170.47119141 C433.10466461 171.33325195 433.10068665 172.1953125 433.09658813 173.08349609 C432.13831834 176.80511106 430.51343271 178.26227609 427.46166992 180.54931641 C424.58820377 181.01927666 422.32033081 181.18651747 419.45849609 181.11694336 C418.27234207 181.11803856 418.27234207 181.11803856 417.06222534 181.11915588 C414.45898877 181.11568362 411.85756104 181.07684211 409.25463867 181.03759766 C407.44575478 181.02826819 405.63685822 181.0211527 403.82795715 181.01615906 C399.0748892 180.99709971 394.32258939 180.94800828 389.56982422 180.89263916 C384.71682119 180.84142361 379.86369363 180.8186401 375.01049805 180.79345703 C365.49388515 180.73988836 355.9778415 180.65458854 346.46166992 180.54931641 C346.48165543 181.97513031 346.48165543 181.97513031 346.50204468 183.42974854 C346.6242105 192.43213508 346.71387278 201.43435125 346.77254295 210.43738174 C346.80372142 215.06489126 346.84594374 219.69172624 346.91430664 224.31884766 C346.97998569 228.79282919 347.0154771 233.26616615 347.03093338 237.74059296 C347.04193345 239.43892297 347.06341232 241.13722174 347.09605026 242.83527374 C347.30371292 254.09763594 346.66162045 263.77507471 338.61239624 272.56988525 C335.25766938 275.70351061 331.56512621 277.51810554 327.46166992 279.54931641 C327.45947008 280.38447265 327.45947008 280.38447265 327.4572258 281.23650074 C327.42006444 294.82649707 327.36067766 308.41624281 327.27776718 322.00603962 C327.23833405 328.57817363 327.20612492 335.15017449 327.19067383 341.72241211 C327.17548018 348.07033326 327.14098561 354.41788822 327.0933609 360.76564598 C327.07857519 363.18197628 327.07063053 365.59835888 327.06978607 368.01473427 C327.0674063 371.41117578 327.0402436 374.80661359 327.00756836 378.20288086 C327.01259872 379.19191406 327.01762909 380.18094727 327.02281189 381.19995117 C326.85815469 392.33281614 323.15809191 401.48712387 315.46166992 409.54931641 C304.80674532 419.72084178 293.49141271 421.14588567 279.29370117 420.93994141 C277.76243333 420.93246345 276.23115579 420.92677789 274.69987488 420.92279053 C270.70649914 420.90765614 266.71372298 420.8684832 262.72058105 420.82397461 C258.6311046 420.7827554 254.54152946 420.76472314 250.4519043 420.74462891 C242.45488705 420.70197403 234.45835347 420.633875 226.46166992 420.54931641 C226.49309082 421.78065308 226.49309082 421.78065308 226.52514648 423.03686523 C226.59406572 426.13626815 226.64382614 429.23527555 226.68139648 432.33520508 C226.71097126 434.31504548 226.76184525 436.29453141 226.81323242 438.27392578 C226.94032049 450.82387299 224.23009634 460.3641727 215.46166992 469.54931641 C206.23453816 478.35782594 196.61122669 481.17505942 184.09692383 481.02001953 C172.26969485 480.55181169 163.62059885 476.00094691 155.48901367 467.48291016 C146.90895648 457.29978495 145.34295943 446.53142702 146.23852539 433.62011719 C147.39862975 422.85424716 153.62643813 414.5492389 161.71166992 407.73681641 C171.49412506 400.77252157 180.88247941 399.99384067 192.64916992 400.29931641 C193.9961482 400.31943751 195.34315592 400.33767825 196.69018555 400.35400391 C199.94766283 400.40070609 203.20476524 400.4724321 206.46166992 400.54931641 C206.46166992 393.94931641 206.46166992 387.34931641 206.46166992 380.54931641 C204.27646729 380.57550049 202.09126465 380.60168457 199.83984375 380.62866211 C192.61557832 380.71155393 185.39129173 380.766757 178.16667652 380.80837727 C173.78680556 380.83445828 169.4074223 380.86982821 165.02783203 380.92651367 C160.8002869 380.98088804 156.57321049 381.0107482 152.34534264 381.02370262 C150.73336089 381.03293289 149.12140447 381.05095799 147.50962257 381.07796669 C145.24934328 381.11433188 142.99099407 381.11925905 140.73046875 381.11694336 C139.44473465 381.12804642 138.15900055 381.13914948 136.83430481 381.15058899 C132.58328897 380.39271885 131.12311505 378.87369557 128.46166992 375.54931641 C127.55855999 372.44686818 127.72807485 369.68842088 128.46166992 366.54931641 C130.89916992 363.54931641 130.89916992 363.54931641 133.46166992 361.54931641 C133.79166992 361.21931641 134.12166992 360.88931641 134.46166992 360.54931641 C171.42166992 360.54931641 208.38166992 360.54931641 246.46166992 360.54931641 C246.46166992 274.74931641 246.46166992 188.94931641 246.46166992 100.54931641 C213.46166992 100.54931641 180.46166992 100.54931641 146.46166992 100.54931641 C146.46166992 111.10931641 146.46166992 121.66931641 146.46166992 132.54931641 C143.46166992 138.54931641 143.46166992 138.54931641 141.21775818 139.90718174 C137.86082539 140.68930579 134.81434927 140.81070969 131.36425781 140.82347107 C130.30958486 140.83132609 130.30958486 140.83132609 129.23360538 140.83933979 C126.88378766 140.8543102 124.53418826 140.85504427 122.18432617 140.85571289 C120.49713779 140.86333617 118.80995289 140.87176396 117.12277222 140.88093567 C112.54435947 140.902866 107.9660135 140.91167715 103.38755417 140.91676211 C100.52725178 140.92040623 97.66696687 140.92664646 94.80667114 140.9337635 C84.82870719 140.95824912 74.85079519 140.9713088 64.87280273 140.97485352 C55.56990883 140.97849212 46.26734418 141.00841299 36.96455097 141.0502581 C28.97716546 141.08492782 20.98988928 141.10040135 13.00242901 141.10109955 C8.23187907 141.10189325 3.46166486 141.11067491 -1.30880737 141.13909721 C-5.79379979 141.16522241 -10.27817669 141.16751439 -14.7632103 141.15144157 C-16.40916152 141.14962287 -18.05514771 141.15635581 -19.7010231 141.17226028 C-21.94838674 141.19265364 -24.19358277 141.18221237 -26.44091797 141.16404724 C-27.69820206 141.16605857 -28.95548615 141.1680699 -30.25086975 141.17014217 C-34.44291258 140.37848906 -35.90773588 138.83810497 -38.53833008 135.54931641 C-39.70707818 132.0430721 -39.66347275 128.9015298 -39.63598633 125.25634766 C-39.63457138 124.55031906 -39.63315643 123.84429047 -39.63169861 123.11686707 C-39.62610772 120.86514015 -39.61355696 118.6135132 -39.60083008 116.36181641 C-39.5958139 114.83382305 -39.5912512 113.30582814 -39.5871582 111.77783203 C-39.57699278 108.03492413 -39.55741577 104.29223198 -39.53833008 100.54931641 C-46.13833008 100.54931641 -52.73833008 100.54931641 -59.53833008 100.54931641 C-59.53833008 186.34931641 -59.53833008 272.14931641 -59.53833008 360.54931641 C-23.23833008 360.54931641 13.06166992 360.54931641 50.46166992 360.54931641 C56.46166992 363.54931641 56.46166992 363.54931641 58.46166992 366.54931641 C58.83276367 368.63525391 58.83276367 368.63525391 58.89916992 370.92431641 C58.93913086 371.67455078 58.9790918 372.42478516 59.02026367 373.19775391 C58.3753064 375.9128887 57.3254287 377.5524609 55.30522156 379.475811 C51.1243916 381.91032027 45.91630382 381.23684856 41.22338867 381.19628906 C39.98223297 381.20505066 38.74107727 381.21381226 37.46231079 381.22283936 C34.06514825 381.24105984 30.66951089 381.23681336 27.27243423 381.22094393 C23.71399162 381.20826548 20.1556132 381.22003041 16.59716797 381.22787476 C10.6218702 381.23696574 4.64688165 381.2249982 -1.32836914 381.20117188 C-8.23198254 381.17396121 -15.13485759 381.1827758 -22.0384531 381.2103039 C-27.9707066 381.23301001 -33.9027381 381.23618786 -39.83502102 381.22311056 C-43.37594642 381.21532412 -46.916525 381.21425169 -50.45742798 381.230793 C-54.40525914 381.24794779 -58.35226645 381.22415734 -62.30004883 381.19628906 C-63.47111176 381.20641022 -64.64217468 381.21653137 -65.84872437 381.22695923 C-66.92538361 381.21286011 -68.00204285 381.19876099 -69.11132812 381.18423462 C-70.51054756 381.18140693 -70.51054756 381.18140693 -71.93803406 381.17852211 C-75.90833271 380.21781051 -77.20870108 378.92004974 -79.53833008 375.54931641 C-80.27636042 371.69198521 -80.2125965 367.88948846 -80.17324829 363.97216797 C-80.18104824 362.78719349 -80.1888482 361.60221901 -80.19688451 360.38133621 C-80.21337982 357.09551424 -80.20744123 353.81061548 -80.19195342 350.52481651 C-80.18064581 346.98007664 -80.19809962 343.43546209 -80.21185303 339.89074707 C-80.23409645 332.94802599 -80.22927945 326.00557503 -80.21478982 319.06284332 C-80.20350187 313.42081992 -80.20196474 307.77887227 -80.20740891 302.13684082 C-80.20817507 301.33410712 -80.20894124 300.53137343 -80.20973062 299.70431447 C-80.21132923 298.07362077 -80.2129503 296.4429271 -80.21459357 294.81223345 C-80.2288543 279.51804309 -80.21245331 264.22400254 -80.18559174 248.92983675 C-80.16325263 235.80422369 -80.16713267 222.67883172 -80.19018555 209.55322266 C-80.21693788 194.31409946 -80.22748098 179.0751076 -80.21212423 163.8359642 C-80.21053147 162.21124015 -80.20895961 160.58651608 -80.20740891 158.96179199 C-80.20663753 158.16237851 -80.20586615 157.36296504 -80.2050714 156.53932691 C-80.20075268 150.90350523 -80.20804462 145.26776679 -80.21980667 139.63195801 C-80.23382395 132.76453844 -80.23004825 125.89740464 -80.20340295 119.03001785 C-80.19025402 115.52549256 -80.18512994 112.02144386 -80.20164871 108.516922 C-80.21525631 104.71962335 -80.19824299 100.92367669 -80.17324829 97.12646484 C-80.1844019 96.01606464 -80.19555551 94.90566444 -80.2070471 93.76161575 C-80.11194305 86.34324393 -80.11194305 86.34324393 -77.23493004 82.36122131 C-73.63554891 79.94271785 -70.58020465 79.91499609 -66.39379883 80.06103516 C-65.62401199 80.06810989 -64.85422516 80.07518463 -64.06111145 80.08247375 C-61.61500705 80.11034716 -59.17123624 80.17306504 -56.72583008 80.23681641 C-55.06245181 80.26190873 -53.39903746 80.28472028 -51.7355957 80.30517578 C-47.66894851 80.3601497 -43.60403419 80.44636714 -39.53833008 80.54931641 C-39.55165375 79.84933533 -39.56497742 79.14935425 -39.57870483 78.42816162 C-39.6997168 71.78038259 -39.79067235 65.13291786 -39.84920311 58.48427963 C-39.88030854 55.06732346 -39.92238703 51.65128908 -39.9909668 48.23486328 C-40.06958597 44.29292447 -40.09791992 40.35133816 -40.12426758 36.40869141 C-40.17071915 34.59857574 -40.17071915 34.59857574 -40.21810913 32.75189209 C-40.22172035 23.50605043 -37.96273838 15.8029323 -31.91439819 8.62103271 C-22.59642041 -0.05212505 -12.02076404 -0.03899604 0 0 Z M170.98120117 428.16650391 C167.33966065 433.08309363 166.69531204 437.59940064 166.98510742 443.64697266 C167.99816226 449.8166427 171.08034282 453.84402637 176.02416992 457.54931641 C181.26718755 460.46320522 186.63884698 460.50541923 192.46166992 459.54931641 C198.19020969 457.49194957 201.45519173 453.82102786 204.55151367 448.70947266 C207.03605776 442.81267918 206.58236877 436.45083784 206.52416992 430.17431641 C206.5196582 429.24748047 206.51514648 428.32064453 206.51049805 427.36572266 C206.49878566 425.09351932 206.48238365 422.82145253 206.46166992 420.54931641 C203.29508329 420.49050837 200.12863999 420.45545235 196.96166992 420.42431641 C196.07479492 420.40755859 195.18791992 420.39080078 194.27416992 420.37353516 C185.41082889 420.30836353 177.30531226 421.25837201 170.98120117 428.16650391 Z " fill="#000000" transform="translate(79.538330078125,15.45068359375)"/>
<path d="M0 0 C6.6 0 13.2 0 20 0 C20.04898438 2.25199219 20.09796875 4.50398438 20.1484375 6.82421875 C20.20251196 9.01528326 20.25979391 11.20624218 20.31738281 13.3972168 C20.35556704 14.91503978 20.39043808 16.43295001 20.421875 17.95092773 C20.46775628 20.13817431 20.52571029 22.32482582 20.5859375 24.51171875 C20.63306885 26.48338013 20.63306885 26.48338013 20.68115234 28.49487305 C20.98312751 31.81451884 21.42697432 34.07909166 23 37 C26.68033902 39.45355935 28.46552313 39.25133743 32.85690308 39.25396729 C33.90901275 39.25864726 33.90901275 39.25864726 34.98237717 39.26342177 C37.33843397 39.2714146 39.69423413 39.26507317 42.05029297 39.25878906 C43.73718416 39.26149841 45.42407416 39.26505902 47.11096191 39.26940918 C51.69777995 39.27854359 56.28450823 39.27498423 60.87132788 39.26865101 C65.66830027 39.26359479 70.46526486 39.26828156 75.26223755 39.27142334 C83.32083519 39.27506479 91.3793962 39.27025993 99.43798828 39.26074219 C108.75549601 39.24986467 118.07291616 39.25337738 127.39042175 39.264395 C135.38625554 39.27347158 143.38206296 39.27475111 151.37790024 39.26951766 C156.15506368 39.26639906 160.93218597 39.26598548 165.70934677 39.27259064 C170.20237067 39.27836858 174.69528175 39.27435894 179.18829346 39.26280212 C180.83745257 39.26015763 182.48662118 39.26091705 184.13577652 39.26532745 C186.38702238 39.27079285 188.6379068 39.26393678 190.88912964 39.25396729 C192.14901136 39.25321323 193.40889309 39.25245918 194.70695305 39.25168228 C198.00458212 38.9996498 200.15882007 38.68944346 203 37 C207.59551672 25.51120819 205.61350719 12.36776999 206 0 C239 0 272 0 306 0 C306 85.8 306 171.6 306 260 C269.04 260.33 232.08 260.66 194 261 C188.79991832 265.34258876 188.79991832 265.34258876 188 270 C179.75 270 171.5 270 163 270 C163 271.65 163 273.3 163 275 C160.92299543 278.11550686 159.35032111 279.72329486 155.6171875 280.48828125 C151.04648907 280.72704908 148.69002226 280.48301558 144.875 277.8125 C143 275 143 275 143 270 C134.75 270 126.5 270 118 270 C117.01 267.69 116.02 265.38 115 263 C79.39628501 248.758514 38.34479013 260.348589 0 260 C0 174.2 0 88.4 0 0 Z M21 65 C20.67 65.33 20.34 65.66 20 66 C19.89650026 68.12529026 19.86476574 70.25407914 19.85955811 72.38188171 C19.85658698 73.05637244 19.85361586 73.73086316 19.8505547 74.42579299 C19.84183173 76.70273824 19.84035642 78.97963113 19.83886719 81.2565918 C19.83424142 82.88245253 19.8292171 84.50831217 19.82382202 86.13417053 C19.81066966 90.56412454 19.80424715 94.99406338 19.79981136 99.42403388 C19.79688421 102.19051109 19.79278002 104.95698413 19.78830719 107.72345924 C19.77462262 116.37536656 19.76496159 125.02726436 19.7611053 133.67918175 C19.75662693 143.67279095 19.73909333 153.6662632 19.7101047 163.65983075 C19.68849041 171.37877963 19.67840109 179.09768999 19.67706418 186.81666881 C19.67601565 191.42905324 19.67009801 196.04130911 19.65224457 200.65366173 C19.63576902 204.99484541 19.63360585 209.33580387 19.64238358 213.67700768 C19.64315432 215.26931359 19.63880624 216.86163157 19.62892532 218.45390701 C19.61621171 220.63060588 19.62207883 222.80650646 19.63250732 224.98320007 C19.63104076 226.20051158 19.6295742 227.41782309 19.6280632 228.67202282 C20.04678608 232.41862757 21.02076419 234.80563727 23 238 C26.10818877 240.07212585 26.7674511 240.2504664 30.28796101 240.25447559 C31.16804964 240.26030779 32.04813828 240.26613998 32.95489627 240.27214891 C33.922584 240.26836958 34.89027173 240.26459026 35.88728333 240.26069641 C37.42836094 240.26643473 37.42836094 240.26643473 39.00057143 240.27228898 C42.45982356 240.28264753 45.91891058 240.27862137 49.37817383 240.2746582 C51.85160985 240.27900314 54.32504452 240.28418555 56.79847717 240.29014587 C62.83000322 240.3021758 68.86146383 240.30468422 74.89299587 240.30234561 C79.7956244 240.30056401 84.69823941 240.30230871 89.60086632 240.30657005 C90.29811854 240.30716524 90.99537077 240.30776043 91.71375185 240.30837366 C93.13015686 240.30958539 94.54656187 240.31079952 95.96296688 240.31201603 C109.25417794 240.32289904 122.54536364 240.32072573 135.83657613 240.31463119 C147.99590028 240.30946373 160.15514427 240.32071156 172.31445257 240.33972941 C184.79670109 240.35910276 197.27891168 240.36736454 209.76117533 240.36360615 C216.77012467 240.36169304 223.77900581 240.36419221 230.78794289 240.37832069 C237.37969373 240.39147351 243.97131058 240.3889812 250.5630703 240.37590981 C252.98422677 240.37353826 255.40539445 240.37629927 257.82653809 240.38453293 C261.12846846 240.39495316 264.4298552 240.38693721 267.73176575 240.3742218 C268.69276131 240.38159609 269.65375687 240.38897037 270.64387351 240.39656812 C275.77953087 240.35488568 279.68384811 240.10968326 284 237 C286.30198346 233.17177075 286.25729837 229.52716581 286.27415466 225.13037109 C286.27939134 224.45175711 286.28462802 223.77314312 286.29002339 223.07396507 C286.30498836 220.80706239 286.30572774 218.54038612 286.30639648 216.2734375 C286.31402013 214.64536154 286.32244798 213.01728917 286.33161926 211.38922119 C286.3535459 206.97196008 286.36236023 202.55476818 286.36744571 198.1374588 C286.37109023 195.37766195 286.37733068 192.61788321 286.3844471 189.85809326 C286.40893135 180.2302572 286.42199211 170.60247498 286.42553711 160.97460938 C286.42917571 151.9988997 286.4590968 143.02353126 286.50094169 134.04792595 C286.53561395 126.34079247 286.55108498 118.63377232 286.55178314 110.92656136 C286.55257675 106.32368044 286.56135418 101.72114752 286.58978081 97.11834717 C286.61591043 92.79093676 286.6181956 88.46416424 286.60212517 84.13671112 C286.60030682 82.54881146 286.60703628 80.96087552 286.62294388 79.3730545 C286.64334531 77.20448797 286.6328919 75.0381662 286.61473083 72.86962891 C286.61674216 71.65659088 286.61875349 70.44355286 286.62082577 69.1937561 C285.81959426 65.07192651 284.22781928 63.59917353 281 61 C278.22650008 60.07550003 276.57088109 59.871742 273.70924568 59.86298561 C272.38818768 59.8553738 272.38818768 59.8553738 271.04044163 59.84760821 C270.07207178 59.84711045 269.10370194 59.84661269 268.10598755 59.84609985 C266.56385159 59.83952647 266.56385159 59.83952647 264.99056137 59.8328203 C261.52902477 59.81941428 258.06751364 59.81324944 254.60595703 59.80712891 C252.13089889 59.79922953 249.6558419 59.79096069 247.18078613 59.78234863 C239.7425774 59.75838 232.30437287 59.7432007 224.86613876 59.73028857 C222.76573586 59.7265765 220.66533363 59.7226033 218.56493139 59.7185359 C205.52412988 59.69330377 192.48332732 59.67124889 179.44250679 59.65880775 C176.42244589 59.65587803 173.40238503 59.65291637 170.38232422 59.64990234 C169.63169735 59.64915629 168.88107049 59.64841024 168.10769735 59.64764158 C155.94119173 59.63498111 143.77483201 59.6017478 131.60839464 59.56010051 C119.12050749 59.51770272 106.63269511 59.4941154 94.14473617 59.48888719 C87.13183347 59.48547106 80.11915898 59.47369201 73.10632706 59.44078445 C66.5120785 59.40989174 59.9181562 59.40435491 53.32382202 59.41616821 C50.90061842 59.4163898 48.47739686 59.40801471 46.05425644 59.39051437 C42.75167874 59.36795641 39.45056298 59.37605661 36.14797974 59.39199829 C34.70211713 59.37117516 34.70211713 59.37117516 33.22704518 59.34993136 C27.39311865 59.41954924 24.73284199 60.11289874 21 65 Z " fill="#EDF9FE" transform="translate(20,116)"/>
<path d="M0 0 C0.87610654 -0.00384115 1.75221308 -0.00768229 2.6548683 -0.01163983 C4.11513842 -0.01034011 4.11513842 -0.01034011 5.60490894 -0.00901413 C6.63058517 -0.01198525 7.65626139 -0.01495637 8.71301872 -0.01801753 C12.17843978 -0.02674653 15.64382648 -0.02821632 19.1092577 -0.02970505 C21.5823979 -0.03433032 24.05553739 -0.03935458 26.52867603 -0.04475021 C33.26847548 -0.05790576 40.00826137 -0.06436186 46.74807048 -0.06876087 C50.95513044 -0.07152062 55.16218808 -0.07575755 59.36924648 -0.08026505 C71.0126805 -0.09246193 82.65611265 -0.10275942 94.29955292 -0.10614014 C95.41824323 -0.10646949 95.41824323 -0.10646949 96.55953335 -0.10680549 C97.30713938 -0.10702377 98.05474542 -0.10724204 98.82500619 -0.10746694 C100.34000409 -0.10791041 101.85500199 -0.10835697 103.36999989 -0.10880661 C104.12149544 -0.10902804 104.872991 -0.10924947 105.64725915 -0.10947761 C117.81963919 -0.11342417 129.9919593 -0.13087197 142.1643162 -0.15416613 C154.6555363 -0.17787782 167.14672634 -0.19034196 179.63796932 -0.19150805 C186.6536617 -0.19242508 193.6692761 -0.19818406 200.68494701 -0.21632767 C207.28486984 -0.23333549 213.8846707 -0.23498257 220.48461819 -0.22618866 C222.90900156 -0.22541617 225.33339278 -0.22978875 227.75775623 -0.23964691 C231.06416281 -0.25230446 234.37003965 -0.24652292 237.67644215 -0.23606491 C238.63880195 -0.24412132 239.60116175 -0.25217772 240.59268397 -0.26047826 C245.78240913 -0.22201494 249.50850572 0.14779672 253.95813465 3.13142776 C256.37736354 6.76027109 256.21152174 8.43281154 256.21883106 12.75381851 C256.22265661 13.43001808 256.22648216 14.10621765 256.23042363 14.80290812 C256.24076036 17.07370744 256.23676025 19.34425423 256.23279285 21.61507034 C256.23713905 23.24122731 256.24232188 24.86738223 256.24828053 26.49353409 C256.26169391 30.91512889 256.26224645 35.33663833 256.25971723 39.75824952 C256.25864879 43.44855397 256.26352778 47.13884106 256.26832265 50.8291418 C256.27942659 59.53644364 256.2798507 68.24370234 256.27380848 76.95100784 C256.26777115 85.93338496 256.28007155 94.91560534 256.30137855 103.89795572 C256.31899606 111.60845972 256.32499555 119.31891385 256.32174081 127.02943724 C256.31992755 131.63507481 256.32256805 136.24060066 256.33645535 140.84622002 C256.34903098 145.17923668 256.34709212 149.51200929 256.33404446 153.8450222 C256.33167829 155.4340994 256.33441482 157.02319375 256.34266758 158.61225128 C256.35313408 160.78447894 256.34503593 162.95588763 256.33235645 165.12808609 C256.33260807 166.95015689 256.33260807 166.95015689 256.33286476 168.80903721 C255.90480593 172.60424496 255.07418328 174.95306806 252.95813465 178.13142776 C248.52500333 181.06196552 242.95450406 180.41845616 237.82361317 180.40558243 C236.79381368 180.41081911 235.76401419 180.41605579 234.70300865 180.42145115 C231.24764693 180.43646934 227.79243304 180.4371567 224.3370409 180.43782425 C221.86168638 180.44544433 219.38633424 180.45387157 216.91098499 180.46304703 C210.18387634 180.4850098 203.45682727 180.49381464 196.72969151 180.49887347 C192.52931467 180.50213193 188.32894698 180.50865515 184.12857533 180.51587486 C172.49784611 180.53543486 160.86712539 180.55184359 149.23637867 180.5547514 C148.12052174 180.55503275 148.12052174 180.55503275 146.98212224 180.55531979 C145.47408517 180.55568604 143.9660481 180.55604974 142.45801103 180.5564109 C141.33513765 180.55668512 141.33513765 180.55668512 140.18957996 180.55696487 C139.4400841 180.55714542 138.69058824 180.55732597 137.91838038 180.55751199 C125.76492692 180.56105616 113.61165035 180.5880963 101.45825827 180.62546276 C88.97933939 180.66352317 76.50050838 180.68290869 64.02153015 180.68321091 C57.0153753 180.68379586 50.00943171 180.69231214 43.00333118 180.72120857 C36.41724866 180.74824817 29.83151231 180.74964678 23.24536991 180.73355293 C20.82539554 180.73173114 18.40539756 180.73849451 15.98547459 180.75437164 C12.68736612 180.77469521 9.39074392 180.76436008 6.09265614 180.7461586 C5.13011197 180.75935857 4.16756781 180.77255854 3.17585564 180.7861585 C-1.38475572 180.72848046 -3.39394945 180.62743712 -7.11277294 177.78050709 C-10.14009771 173.62330683 -10.17272394 170.52586408 -10.1957655 165.50230789 C-10.20014775 164.82540275 -10.20453 164.14849762 -10.20904505 163.4510802 C-10.22242257 161.17802266 -10.22860947 158.90500388 -10.23473644 156.63191605 C-10.24263807 155.00413717 -10.25090706 153.37636004 -10.25951672 151.74858475 C-10.28572397 146.39965358 -10.30104039 141.05071462 -10.31530285 135.70174026 C-10.32066256 133.86091863 -10.32604006 132.02009705 -10.3314352 130.17927551 C-10.35305963 122.52384304 -10.3717977 114.86841267 -10.38305759 107.21295738 C-10.39930715 96.23715968 -10.43251421 85.26171538 -10.48945844 74.28605092 C-10.52812646 66.57047711 -10.5476864 58.85499797 -10.55297816 51.13932979 C-10.55663517 46.52969441 -10.56869378 41.92043608 -10.60108089 37.31090546 C-10.63110744 32.97533734 -10.63749295 28.6403755 -10.62569714 24.30472565 C-10.62547596 22.71359373 -10.63381727 21.1224341 -10.65135098 19.53139877 C-10.67399509 17.35837184 -10.66577339 15.18755253 -10.64986706 13.01451492 C-10.6531772 11.79887926 -10.65648735 10.5832436 -10.6598978 9.33077049 C-9.86980148 5.24071192 -8.17257583 3.77576776 -5.04186535 1.13142776 C-3.51074072 -0.39969687 -2.13553791 0.0034939 0 0 Z M9.95813465 20.13142776 C9.95813465 66.33142776 9.95813465 112.53142776 9.95813465 160.13142776 C84.53813465 160.13142776 159.11813465 160.13142776 235.95813465 160.13142776 C235.95813465 113.93142776 235.95813465 67.73142776 235.95813465 20.13142776 C161.37813465 20.13142776 86.79813465 20.13142776 9.95813465 20.13142776 Z " fill="#000000" transform="translate(50.04186534881592,175.86857223510742)"/>
<path d="M0 0 C1.55829104 0.00138269 1.55829104 0.00138269 3.14806271 0.00279331 C4.92971828 0.00073132 4.92971828 0.00073132 6.74736691 -0.00137234 C8.71965519 0.00402058 8.71965519 0.00402058 10.73178768 0.00952244 C12.12108006 0.00980431 13.51037259 0.00964658 14.89966488 0.00907993 C18.6825558 0.00879195 22.46541529 0.01468882 26.24829888 0.02165389 C30.19745968 0.02788728 34.14662113 0.02849122 38.09578609 0.0296793 C45.57915367 0.03279266 53.0625067 0.04100611 60.54586786 0.05102879 C70.65455975 0.06427498 80.76325559 0.06968979 90.87195396 0.07553101 C106.80628118 0.084946 122.74057771 0.10486488 138.67490292 0.12304783 C138.34490292 33.12304783 138.01490292 66.12304783 137.67490292 100.12304783 C89.49490292 100.12304783 41.31490292 100.12304783 -8.32509708 100.12304783 C-8.42822208 84.71617283 -8.53134708 69.30929783 -8.63759708 53.43554783 C-8.6831171 48.57360691 -8.72863712 43.71166599 -8.77553654 38.70239353 C-8.79811954 32.75817966 -8.79811954 32.75817966 -8.80231571 29.97404575 C-8.80998588 28.03254053 -8.82755565 26.0910589 -8.85297489 24.14970493 C-8.8895876 21.20591047 -8.89462705 18.26356914 -8.89272404 15.31958103 C-8.91071458 14.45694551 -8.92870512 13.59430998 -8.94724083 12.70553398 C-8.9089008 8.27360388 -8.7671211 6.66146842 -5.8521204 3.1107645 C-5.01820271 2.454818 -4.18428501 1.7988715 -3.32509708 1.12304783 C-2.32509708 0.12304783 -2.32509708 0.12304783 0 0 Z " fill="#EDF9FE" transform="translate(68.32509708404541,35.876952171325684)"/>
<path d="M0 0 C0.74121094 0.061875 1.48242188 0.12375 2.24609375 0.1875 C5.70242688 1.39983945 7.26364767 3.16266292 9.5625 6 C10.00198867 8.85601476 10.15269987 11.09053457 10.05078125 13.92578125 C10.04370651 14.67337204 10.03663177 15.42096283 10.02934265 16.19120789 C10.00147645 18.56601402 9.93876132 20.93841351 9.875 23.3125 C9.84990668 24.92770018 9.82709531 26.54293754 9.80664062 28.15820312 C9.75167647 32.10638819 9.66546527 36.05278689 9.5625 40 C10.38669434 39.98477295 11.21088867 39.9695459 12.06005859 39.95385742 C13.14109863 39.94201416 14.22213867 39.9301709 15.3359375 39.91796875 C16.943479 39.89512817 16.943479 39.89512817 18.58349609 39.87182617 C22.24544944 40.0293844 24.57751776 40.87909157 27.5625 43 C29.5765956 46.0211434 29.83086596 46.80660017 29.9765625 50.23046875 C30.01523438 51.03291016 30.05390625 51.83535156 30.09375 52.66210938 C30.1246875 53.49548828 30.155625 54.32886719 30.1875 55.1875 C30.22617188 56.03248047 30.26484375 56.87746094 30.3046875 57.74804688 C30.39886279 59.83167524 30.48176675 61.91580753 30.5625 64 C31.21323486 63.34402832 31.86396973 62.68805664 32.53442383 62.01220703 C34.95330633 59.57626733 37.37443581 57.14260652 39.79711914 54.71044922 C40.84457706 53.65796713 41.8911351 52.60458865 42.93676758 51.55029297 C44.4411546 50.0337565 45.94876386 48.5204886 47.45703125 47.0078125 C48.81598511 45.64100342 48.81598511 45.64100342 50.20239258 44.24658203 C55.76299638 38.95345322 60.49406091 39.66017523 67.84936523 39.68432617 C69.85731432 39.68747229 71.86524506 39.66319315 73.87304688 39.63867188 C75.14857422 39.63802734 76.42410156 39.63738281 77.73828125 39.63671875 C79.48492065 39.63224731 79.48492065 39.63224731 81.2668457 39.62768555 C84.99562447 40.04893065 87.379125 41.03605952 90.5625 43 C93.04636059 46.72579089 92.9429212 48.58711402 92.5625 53 C91.2902357 56.01325755 90.38354731 57.52307982 87.54882812 59.16967773 C84.67667679 59.96825415 83.07641615 59.99916496 80.16601562 59.76586914 C71.97375167 59.1960023 65.14107224 59.26192338 58.4609375 64.51123047 C53.30700551 69.1550391 48.68251249 74.27158934 44.0625 79.4375 C41.62726604 82.06037463 39.17767638 84.66897129 36.72253418 87.27320862 C35.2105093 88.88745953 33.71273094 90.51520795 32.23156738 92.15782166 C31.55895874 92.89521072 30.8863501 93.63259979 30.19335938 94.39233398 C29.61050171 95.04217758 29.02764404 95.69202118 28.42712402 96.36155701 C25.43589152 98.98994959 22.45638998 99.86964104 18.5625 100.4375 C14.52579908 99.84881445 13.15730077 98.03962376 10.5625 95 C10.2325 94.67 9.9025 94.34 9.5625 94 C9.47402257 91.47905924 9.44722699 88.98569107 9.46484375 86.46484375 C9.4662587 85.71159317 9.46767365 84.95834259 9.46913147 84.18226624 C9.47474624 81.7673044 9.48730117 79.35243399 9.5 76.9375 C9.5050131 75.30403779 9.50957634 73.67057414 9.51367188 72.03710938 C9.52472046 68.02470415 9.54199494 64.01236759 9.5625 60 C8.59103027 60.02755371 7.61956055 60.05510742 6.61865234 60.08349609 C5.34973145 60.10492676 4.08081055 60.12635742 2.7734375 60.1484375 C1.51321777 60.17599121 0.25299805 60.20354492 -1.04541016 60.23193359 C-4.32998454 60.00735135 -5.54244465 59.90168083 -7.8125 57.625 C-9.4375 55 -9.4375 55 -9.4375 53 C-10.0975 53 -10.7575 53 -11.4375 53 C-11.68137451 53.80864502 -11.92524902 54.61729004 -12.17651367 55.45043945 C-13.69727007 59.73122885 -15.60759822 63.7216948 -17.61328125 67.79296875 C-18.02031784 68.62081375 -18.42735443 69.44865875 -18.84672546 70.30158997 C-19.70597122 72.04326658 -20.56757427 73.783782 -21.43139648 75.52319336 C-22.74783708 78.18312971 -24.04477347 80.8520378 -25.34179688 83.52148438 C-26.18109936 85.21673665 -27.02155534 86.91141844 -27.86328125 88.60546875 C-28.24680252 89.40236618 -28.63032379 90.19926361 -29.02546692 91.02030945 C-31.19986411 95.33460634 -32.79859597 98.03509447 -37.4375 100 C-40.625 100.75 -40.625 100.75 -44.4375 100 C-49.05591204 96.68780551 -53.12141176 92.78647719 -56.4921875 88.2109375 C-59.54023402 84.33668057 -61.98780094 81.42449824 -67.04394531 80.54833984 C-71.15354769 80.23758078 -75.20761148 80.15441618 -79.3269043 80.28515625 C-86.78741191 80.4634211 -86.78741191 80.4634211 -90.56640625 77.76953125 C-93.20078908 73.87020469 -94.04861603 70.6852229 -93.4375 66 C-91.0625 63 -91.0625 63 -88.4375 61 C-87.9425 60.505 -87.9425 60.505 -87.4375 60 C-83.39560936 59.7570227 -79.35010009 59.77143723 -75.30151367 59.75976562 C-73.27545147 59.75012115 -71.25043054 59.71914187 -69.22460938 59.6875 C-67.2977832 59.67976563 -67.2977832 59.67976563 -65.33203125 59.671875 C-63.56629761 59.65785645 -63.56629761 59.65785645 -61.76489258 59.64355469 C-55.86009578 60.27610317 -52.13678095 62.91947787 -48.1875 67.1875 C-46.97374385 68.49299353 -45.73101764 69.7734889 -44.4375 71 C-43.7775 71 -43.1175 71 -42.4375 71 C-42.02042786 70.15475266 -41.60335571 69.30950531 -41.17364502 68.43864441 C-37.24146454 60.47291674 -33.29872762 52.51249355 -29.34560013 44.5571394 C-27.31360467 40.46705754 -25.28537113 36.37519915 -23.265625 32.27905273 C-21.31625331 28.32597533 -19.35714539 24.37786646 -17.3911972 20.43300819 C-16.64294519 18.9272671 -15.8982156 17.41977027 -15.1570816 15.91051292 C-14.1182296 13.79650404 -13.06701717 11.68909016 -12.01269531 9.58276367 C-11.70915131 8.95769928 -11.4056073 8.33263489 -11.09286499 7.68862915 C-8.5030383 2.57002494 -6.00963266 -0.66657971 0 0 Z " fill="#010202" transform="translate(173.4375,216)"/>
<path d="M0 0 C6.6 0 13.2 0 20 0 C20.06947413 17.10702107 20.12299777 34.21398571 20.15543652 51.32111549 C20.17089934 59.26441885 20.19197765 67.20763288 20.22631836 75.15087891 C20.25623866 82.07495953 20.27557925 88.99897547 20.28226548 95.92311895 C20.28617331 99.58874672 20.2953449 103.25418943 20.31719017 106.91975784 C20.34139066 111.01380847 20.34196831 115.10753822 20.34057617 119.20166016 C20.351362 120.41438599 20.36214783 121.62711182 20.3732605 122.87658691 C20.33482997 133.30350762 20.33482997 133.30350762 17 138 C13.41533542 140.13142218 10.11377245 140.59992515 6 140 C2.89835231 137.44975635 1.27433584 135.82300753 0 132 C-0.09055683 130.21117742 -0.12195548 128.41911845 -0.12025452 126.62800598 C-0.12162918 125.51321365 -0.12300385 124.39842133 -0.12442017 123.24984741 C-0.12082489 122.02633575 -0.11722961 120.8028241 -0.11352539 119.54223633 C-0.11367142 118.25432693 -0.11381744 116.96641754 -0.1139679 115.63948059 C-0.11425513 112.10669914 -0.10837032 108.57395156 -0.10139394 105.04117799 C-0.09514812 101.34961255 -0.09455563 97.65804635 -0.09336853 93.96647644 C-0.09025884 86.97545691 -0.08205033 79.98445299 -0.07201904 72.99344033 C-0.06084667 65.0346368 -0.05534461 57.07583253 -0.05032361 49.11702311 C-0.03986743 32.74467267 -0.02207385 16.37233894 0 0 Z " fill="#B2F0FE" transform="translate(386,136)"/>
<path d="M0 0 C0.88783676 -0.0049649 1.77567352 -0.00992981 2.69041443 -0.01504517 C5.64298261 -0.02971161 8.595497 -0.03647748 11.5480957 -0.04199219 C13.59495547 -0.04774155 15.64181521 -0.0534993 17.68867493 -0.05926514 C21.98874158 -0.06978896 26.28878946 -0.07562205 30.58886719 -0.07910156 C36.09584327 -0.08457821 41.60257108 -0.10858273 47.10946941 -0.13707352 C51.34142271 -0.15571302 55.57331651 -0.16090628 59.80530739 -0.16243744 C61.83506434 -0.16546335 63.86482025 -0.1734898 65.89453697 -0.18662262 C68.73847563 -0.20370449 71.5818119 -0.20179716 74.42578125 -0.1953125 C75.68146912 -0.20913467 75.68146912 -0.20913467 76.96252441 -0.22323608 C81.88113123 -0.18815823 85.2942832 0.39698257 89.53637695 3.16113281 C92.02023754 6.8869237 91.91679816 8.74824684 91.53637695 13.16113281 C90.25521244 16.19546981 89.38634836 17.69887818 86.48144531 19.27870178 C82.48109601 20.47732671 78.75806116 20.4642194 74.6027832 20.4675293 C73.71275604 20.47585281 72.82272888 20.48417633 71.9057312 20.49275208 C68.97006838 20.5168053 66.03462779 20.52561713 63.09887695 20.53222656 C61.05533787 20.54119424 59.01179946 20.55031611 56.96826172 20.55958557 C52.68789067 20.57606383 48.40759776 20.58377396 44.12719727 20.58666992 C38.64245264 20.59206208 33.15844157 20.62978176 27.67390442 20.67541409 C23.45484732 20.70514869 19.23596797 20.71239265 15.01681519 20.71339607 C12.99458444 20.7176031 10.97235339 20.73005665 8.95022583 20.75091362 C6.12292304 20.77776202 3.29733576 20.77302295 0.4699707 20.76049805 C-0.36446564 20.77533234 -1.19890198 20.79016663 -2.05862427 20.80545044 C-6.37244044 20.7510161 -7.97379697 20.55174482 -11.46679688 17.76625061 C-14.33597603 14.02303562 -15.07309487 10.83375013 -14.46362305 6.16113281 C-12.08862305 3.16113281 -12.08862305 3.16113281 -9.46362305 1.16113281 C-7.38441273 -0.9180775 -2.86656461 0.00378215 0 0 Z " fill="#010101" transform="translate(94.463623046875,95.8388671875)"/>
<path d="M0 0 C0.88783676 -0.0049649 1.77567352 -0.00992981 2.69041443 -0.01504517 C5.64298261 -0.02971161 8.595497 -0.03647748 11.5480957 -0.04199219 C13.59495547 -0.04774155 15.64181521 -0.0534993 17.68867493 -0.05926514 C21.98874158 -0.06978896 26.28878946 -0.07562205 30.58886719 -0.07910156 C36.09584327 -0.08457821 41.60257108 -0.10858273 47.10946941 -0.13707352 C51.34142271 -0.15571302 55.57331651 -0.16090628 59.80530739 -0.16243744 C61.83506434 -0.16546335 63.86482025 -0.1734898 65.89453697 -0.18662262 C68.73847563 -0.20370449 71.5818119 -0.20179716 74.42578125 -0.1953125 C75.68146912 -0.20913467 75.68146912 -0.20913467 76.96252441 -0.22323608 C81.88113123 -0.18815823 85.2942832 0.39698257 89.53637695 3.16113281 C92.02023754 6.8869237 91.91679816 8.74824684 91.53637695 13.16113281 C90.25521244 16.19546981 89.38634836 17.69887818 86.48144531 19.27870178 C82.48109601 20.47732671 78.75806116 20.4642194 74.6027832 20.4675293 C73.71275604 20.47585281 72.82272888 20.48417633 71.9057312 20.49275208 C68.97006838 20.5168053 66.03462779 20.52561713 63.09887695 20.53222656 C61.05533787 20.54119424 59.01179946 20.55031611 56.96826172 20.55958557 C52.68789067 20.57606383 48.40759776 20.58377396 44.12719727 20.58666992 C38.64245264 20.59206208 33.15844157 20.62978176 27.67390442 20.67541409 C23.45484732 20.70514869 19.23596797 20.71239265 15.01681519 20.71339607 C12.99458444 20.7176031 10.97235339 20.73005665 8.95022583 20.75091362 C6.12292304 20.77776202 3.29733576 20.77302295 0.4699707 20.76049805 C-0.36446564 20.77533234 -1.19890198 20.79016663 -2.05862427 20.80545044 C-6.37244044 20.7510161 -7.97379697 20.55174482 -11.46679688 17.76625061 C-14.33597603 14.02303562 -15.07309487 10.83375013 -14.46362305 6.16113281 C-12.08862305 3.16113281 -12.08862305 3.16113281 -9.46362305 1.16113281 C-7.38441273 -0.9180775 -2.86656461 0.00378215 0 0 Z " fill="#010101" transform="translate(94.463623046875,55.8388671875)"/>
<path d="M0 0 C21.78 0 43.56 0 66 0 C66 6.6 66 13.2 66 20 C44.22 20 22.44 20 0 20 C0 13.4 0 6.8 0 0 Z " fill="#EEFAFF" transform="translate(426,156)"/>
<path d="M0 0 C2.0260622 -0.00964447 4.05108314 -0.04062376 6.0769043 -0.07226562 C8.00373047 -0.08 8.00373047 -0.08 9.96948242 -0.08789062 C11.73521606 -0.10190918 11.73521606 -0.10190918 13.53662109 -0.11621094 C17.2921756 0.28610101 19.66299255 1.25957536 22.86401367 3.24023438 C25.34787426 6.96602526 25.24443488 8.8273484 24.86401367 13.24023438 C23.54541558 16.36322986 22.70430729 17.81439224 19.66674805 19.35375977 C14.08679276 21.11863935 8.16757058 20.65220553 2.36401367 20.67773438 C1.04530273 20.71060547 -0.2734082 20.74347656 -1.63208008 20.77734375 C-2.90180664 20.78443359 -4.1715332 20.79152344 -5.47973633 20.79882812 C-7.21513672 20.81901001 -7.21513672 20.81901001 -8.9855957 20.83959961 C-13.07183944 20.06218731 -14.53650833 18.40903425 -17.13598633 15.24023438 C-18.30635574 12.21591695 -18.55557826 9.45710583 -18.13598633 6.24023438 C-15.76098633 3.24023438 -15.76098633 3.24023438 -13.13598633 1.24023438 C-10.54096497 -1.35478698 -3.51962525 0.01014667 0 0 Z " fill="#020303" transform="translate(98.135986328125,235.759765625)"/>
<path d="M0 0 C2.0260622 -0.00964447 4.05108314 -0.04062376 6.0769043 -0.07226562 C8.00373047 -0.08 8.00373047 -0.08 9.96948242 -0.08789062 C11.73521606 -0.10190918 11.73521606 -0.10190918 13.53662109 -0.11621094 C17.2921756 0.28610101 19.66299255 1.25957536 22.86401367 3.24023438 C25.34787426 6.96602526 25.24443488 8.8273484 24.86401367 13.24023438 C23.54541558 16.36322986 22.70430729 17.81439224 19.66674805 19.35375977 C14.08679276 21.11863935 8.16757058 20.65220553 2.36401367 20.67773438 C1.04530273 20.71060547 -0.2734082 20.74347656 -1.63208008 20.77734375 C-2.90180664 20.78443359 -4.1715332 20.79152344 -5.47973633 20.79882812 C-7.21513672 20.81901001 -7.21513672 20.81901001 -8.9855957 20.83959961 C-13.07183944 20.06218731 -14.53650833 18.40903425 -17.13598633 15.24023438 C-18.30635574 12.21591695 -18.55557826 9.45710583 -18.13598633 6.24023438 C-15.76098633 3.24023438 -15.76098633 3.24023438 -13.13598633 1.24023438 C-10.54096497 -1.35478698 -3.51962525 0.01014667 0 0 Z " fill="#020303" transform="translate(241.135986328125,215.759765625)"/>
<path d="M0 0 C3.93539483 0.2997155 6.68003836 0.81811425 10.171875 2.7421875 C13.40412633 8.26829461 12.40392881 13.7512359 12.109375 20.0546875 C5.509375 20.0546875 -1.090625 20.0546875 -7.890625 20.0546875 C-8.49245666 7.17548994 -8.49245666 7.17548994 -6.8125 4.046875 C-5.453125 2.7421875 -5.453125 2.7421875 -2.890625 1.0546875 C-1.890625 0.0546875 -1.890625 0.0546875 0 0 Z " fill="#E9F5FA" transform="translate(233.890625,35.9453125)"/>
<path d="M0 0 C4.13618341 0.31500735 6.63956604 0.74787348 10.171875 3.0546875 C12.45061757 6.5830631 12.85442719 8.75690588 12.578125 12.89453125 C12.109375 15.0546875 12.109375 15.0546875 10.234375 18.1171875 C5.82911558 20.84844834 2.16014666 21.05656188 -2.890625 20.0546875 C-6.015625 18.1171875 -6.015625 18.1171875 -7.890625 15.0546875 C-8.57531721 11.89939754 -8.62653879 9.20371397 -7.890625 6.0546875 C-5.453125 3.0546875 -5.453125 3.0546875 -2.890625 1.0546875 C-1.890625 0.0546875 -1.890625 0.0546875 0 0 Z " fill="#040404" transform="translate(170.890625,375.9453125)"/>
<path d="M0 0 C4.21991975 0.32138462 6.62477605 0.71843517 10.171875 3.1796875 C12.62942904 6.82638059 12.72695581 8.73162183 12.109375 13.0546875 C10.75690611 16.25790328 9.82378782 17.64920996 6.796875 19.3671875 C3.62182807 20.17940881 1.37132147 20.53038803 -1.890625 20.0546875 C-4.85978717 18.00926467 -6.46450923 16.35657712 -7.59765625 12.89453125 C-8.03087255 10.46932972 -8.20954117 8.49971148 -7.890625 6.0546875 C-5.515625 3.0546875 -5.515625 3.0546875 -2.890625 1.0546875 C-1.890625 0.0546875 -1.890625 0.0546875 0 0 Z " fill="#080808" transform="translate(293.890625,135.9453125)"/>
<path d="M0 0 C4.21991975 0.32138462 6.62477605 0.71843517 10.171875 3.1796875 C12.62942904 6.82638059 12.72695581 8.73162183 12.109375 13.0546875 C10.75690611 16.25790328 9.82378782 17.64920996 6.796875 19.3671875 C3.62182807 20.17940881 1.37132147 20.53038803 -1.890625 20.0546875 C-4.85978717 18.00926467 -6.46450923 16.35657712 -7.59765625 12.89453125 C-8.03087255 10.46932972 -8.20954117 8.49971148 -7.890625 6.0546875 C-5.515625 3.0546875 -5.515625 3.0546875 -2.890625 1.0546875 C-1.890625 0.0546875 -1.890625 0.0546875 0 0 Z " fill="#080808" transform="translate(253.890625,135.9453125)"/>
</svg>
