<?xml version="1.0" encoding="UTF-8"?>
<svg version="1.1" xmlns="http://www.w3.org/2000/svg" width="200" height="200">
<path d="M0 0 C66 0 132 0 200 0 C200 66 200 132 200 200 C134 200 68 200 0 200 C0 134 0 68 0 0 Z " fill="#17014E" transform="translate(0,0)"/>
<path d="M0 0 C4.03582768 2.45326551 6.19162039 5.16470492 7.6796875 9.62890625 C8.01504086 15.32991332 8.32171836 21.1713876 6.6796875 26.69140625 C5.1505599 31.93731847 4.97757099 37.22260912 5.6796875 42.62890625 C8.37144793 47.41425813 12.0297843 48.12658934 17.0546875 49.56640625 C18.19292969 49.88480469 19.33117187 50.20320313 20.50390625 50.53125 C25.42072655 52.23066759 28.86191134 54.91243087 31.74682617 59.22363281 C33.08548487 62.67520714 32.9255204 66.02993363 32.875 69.67578125 C32.8721701 70.44698303 32.86934021 71.21818481 32.86642456 72.01275635 C32.85525763 74.46829957 32.83015979 76.92347385 32.8046875 79.37890625 C32.79465318 81.04686972 32.78552811 82.71483893 32.77734375 84.3828125 C32.75532975 88.46498522 32.72082417 92.54688325 32.6796875 96.62890625 C24.95751121 100.90203759 15.66263678 100.93837126 7.03515625 100.9296875 C6.06290604 100.93397263 5.09065582 100.93825775 4.08894348 100.94267273 C2.0478289 100.94837168 0.00669403 100.94894939 -2.03442383 100.94458008 C-5.11510775 100.94142439 -8.19482515 100.96492139 -11.27539062 100.99023438 C-32.35549708 101.05807761 -32.35549708 101.05807761 -42.3203125 97.62890625 C-45.84160952 94.10760923 -44.73226631 88.89752895 -44.7578125 84.12890625 C-44.79068359 83.07703125 -44.82355469 82.02515625 -44.85742188 80.94140625 C-44.90804551 73.50433413 -43.74730008 67.72969673 -39.3203125 61.62890625 C-36.26953125 59.11328125 -36.26953125 59.11328125 -33.0078125 57.37890625 C-31.8734375 56.73695312 -30.7390625 56.095 -29.5703125 55.43359375 C-28.4978125 54.83804688 -27.4253125 54.2425 -26.3203125 53.62890625 C-24.69184532 52.62565415 -23.08264323 51.58941457 -21.5078125 50.50390625 C-20.88261719 50.08882812 -20.25742188 49.67375 -19.61328125 49.24609375 C-17.66192144 46.80542015 -18.10730404 44.64443776 -18.3203125 41.62890625 C-19.58488281 41.57283203 -19.58488281 41.57283203 -20.875 41.515625 C-21.97070312 41.44988281 -23.06640625 41.38414063 -24.1953125 41.31640625 C-25.83113281 41.22939453 -25.83113281 41.22939453 -27.5 41.140625 C-28.43070313 40.97175781 -29.36140625 40.80289063 -30.3203125 40.62890625 C-32.68605484 37.08029275 -32.42896515 36.05245375 -31.9453125 31.94140625 C-31.83445312 30.94753906 -31.72359375 29.95367187 -31.609375 28.9296875 C-31.51398438 28.17042969 -31.41859375 27.41117188 -31.3203125 26.62890625 C-32.3103125 26.29890625 -33.3003125 25.96890625 -34.3203125 25.62890625 C-32.4453125 20.75390625 -32.4453125 20.75390625 -31.3203125 19.62890625 C-31.21376681 18.27636796 -31.13539767 16.92157256 -31.0703125 15.56640625 C-30.36106932 8.81784991 -27.50744417 4.53075988 -22.4453125 0.12890625 C-15.9850941 -3.0798115 -6.50863931 -2.68768517 0 0 Z " fill="#F9F8F9" transform="translate(108.3203125,20.37109375)"/>
<path d="M0 0 C12.54567502 -0.91673403 12.54567502 -0.91673403 16.0078125 1.265625 C19.30151793 5.32851912 20.13704978 8.59083663 20.31640625 13.6640625 C20.35830078 14.78554688 20.40019531 15.90703125 20.44335938 17.0625 C20.48267578 18.238125 20.52199219 19.41375 20.5625 20.625 C20.60568359 21.80835937 20.64886719 22.99171875 20.69335938 24.2109375 C20.79967426 27.14050328 20.90170642 30.07015588 21 33 C21.66 33.33 22.32 33.66 23 34 C23.2165625 32.824375 23.2165625 32.824375 23.4375 31.625 C24 29 24 29 25 27 C29.25749364 26.36137595 31.67855851 27.1120162 35.125 29.5 C40.55280683 33.88998525 42.9344124 39.19038784 44 46 C44.75503815 62.2999413 44.75503815 62.2999413 41.375 67.5 C38.71235948 69.1816677 37.15947771 69.39027257 34.078125 68.75390625 C29.55079267 67.11147178 23.2196229 64.4392458 21 60 C20.84777027 58.33434251 20.75082785 56.66343504 20.68359375 54.9921875 C20.64169922 54.00605469 20.59980469 53.01992187 20.55664062 52.00390625 C20.51732422 50.97136719 20.47800781 49.93882813 20.4375 48.875 C20.39431641 47.83472656 20.35113281 46.79445312 20.30664062 45.72265625 C20.2003712 43.14857472 20.09833417 40.57439492 20 38 C19.01 38 18.02 38 17 38 C16.98018066 38.61520508 16.96036133 39.23041016 16.93994141 39.86425781 C16.84450273 42.65992542 16.73490045 45.4548651 16.625 48.25 C16.57859375 49.70212891 16.57859375 49.70212891 16.53125 51.18359375 C16.49257812 52.11816406 16.45390625 53.05273438 16.4140625 54.015625 C16.3826416 54.87446289 16.3512207 55.73330078 16.31884766 56.61816406 C15.97629352 59.17709064 15.36575466 60.81811641 14 63 C11.609375 64.703125 11.609375 64.703125 8.75 66.25 C7.35007812 67.03117187 7.35007812 67.03117187 5.921875 67.828125 C2.7279064 69.10912845 0.40853178 69.2218571 -3 69 C-5.82076895 64.15132689 -6.61910686 60.2284394 -6.875 54.75 C-6.91254395 54.00000732 -6.95008789 53.25001465 -6.98876953 52.47729492 C-7.22967983 45.0848587 -6.27500941 38.63775505 -1.6875 32.625 C1.09307926 29.90908537 3.54731537 27.79827325 7 26 C9.75 26.0625 9.75 26.0625 12 27 C14 30 14 30 14 34 C14.99 33.505 14.99 33.505 16 33 C16.08732726 29.10430865 16.14050185 25.20887018 16.1875 21.3125 C16.21263672 20.20970703 16.23777344 19.10691406 16.26367188 17.97070312 C16.27333984 16.90400391 16.28300781 15.83730469 16.29296875 14.73828125 C16.3086792 13.75899658 16.32438965 12.77971191 16.34057617 11.77075195 C15.93575093 8.47730273 15.01339141 6.62279975 13 4 C9.82138027 3.17869322 9.82138027 3.17869322 6.3125 3.1875 C5.13300781 3.13980469 3.95351562 3.09210937 2.73828125 3.04296875 C1.83464844 3.02878906 0.93101563 3.01460937 0 3 C0 2.01 0 1.02 0 0 Z " fill="#201153" transform="translate(85,46)"/>
<path d="M0 0 C0.66 1.32 1.32 2.64 2 4 C0.9171875 4.7734375 0.9171875 4.7734375 -0.1875 5.5625 C-5.89842765 10.51197063 -8.7937667 15.44654183 -10 23 C-10.12780389 25.92000519 -9.97380637 28.77541478 -9.75 31.6875 C-9.71003906 32.42033203 -9.67007813 33.15316406 -9.62890625 33.90820312 C-9.3584705 37.96108485 -8.7654542 41.33161771 -7 45 C-2.19900295 45.32006647 0.63283008 44.53749225 4.8125 42.1875 C6.24529297 41.40439453 6.24529297 41.40439453 7.70703125 40.60546875 C10.28421047 39.14029378 10.28421047 39.14029378 11 36 C11.11303957 34.39697292 11.17779156 32.79025958 11.2109375 31.18359375 C11.25347656 29.79043945 11.25347656 29.79043945 11.296875 28.36914062 C11.34905724 26.41100213 11.39329873 24.45263627 11.4296875 22.49414062 C11.460625 21.56666016 11.4915625 20.63917969 11.5234375 19.68359375 C11.54325684 18.83337646 11.56307617 17.98315918 11.58349609 17.10717773 C11.72094238 16.41180908 11.85838867 15.71644043 12 15 C12.99 14.34 13.98 13.68 15 13 C17.5182095 15.5182095 17.26045741 16.41859419 17.30859375 19.90234375 C17.33373047 20.87494141 17.35886719 21.84753906 17.38476562 22.84960938 C17.41985411 24.90423491 17.45111906 26.95892938 17.47851562 29.01367188 C17.50494141 29.98755859 17.53136719 30.96144531 17.55859375 31.96484375 C17.57204834 32.8580835 17.58550293 33.75132324 17.59936523 34.67163086 C18.07685819 37.44667674 18.82253409 38.27792795 21 40 C25.42376382 42.79177604 30.06409746 45.24855071 35 47 C34.34 47.99 33.68 48.98 33 50 C34.32 50.66 35.64 51.32 37 52 C30.70532177 52.07691467 24.41076744 52.12895703 18.11572266 52.16479492 C15.98025993 52.17975635 13.84482725 52.20013284 11.70947266 52.22631836 C-12.92361209 52.52053085 -12.92361209 52.52053085 -23 49 C-26.52129702 45.47870298 -25.41195381 40.2686227 -25.4375 35.5 C-25.47037109 34.448125 -25.50324219 33.39625 -25.53710938 32.3125 C-25.58773154 24.87564444 -24.4294028 19.09919726 -20 13 C-17.94496309 11.04121542 -16.19272142 10.06284722 -13.625 8.6875 C-12.48933594 8.05199219 -11.35367188 7.41648437 -10.18359375 6.76171875 C-9.13300781 6.18035156 -8.08242187 5.59898438 -7 5 C-4.60551456 3.3997829 -2.31081719 1.71967791 0 0 Z " fill="#F4F3F6" transform="translate(89,69)"/>
<path d="M0 0 C3 0.125 3 0.125 4 1.125 C4.23287008 2.80683948 4.41264166 4.4962416 4.5625 6.1875 C4.64628906 7.10660156 4.73007813 8.02570313 4.81640625 8.97265625 C4.87699219 9.68292969 4.93757812 10.39320313 5 11.125 C5.33 10.795 5.66 10.465 6 10.125 C8.95224072 9.71305943 11.09957373 9.5689764 13.6953125 11.171875 C15.8851512 12.97029326 17.72160534 14.56821069 19 17.125 C19.50866466 23.22897596 19.05703618 26.23269166 15 31.125 C12.53155352 32.35922324 10.9371901 32.19095958 8.1875 32.125 C5.26432707 32.08281857 2.87478554 32.15108635 0 32.75 C-0.66 32.87375 -1.32 32.9975 -2 33.125 C-4 31.125 -4 31.125 -4.24291992 28.15991211 C-4.23881104 26.91991455 -4.23470215 25.67991699 -4.23046875 24.40234375 C-4.23001053 23.74166397 -4.22955231 23.08098419 -4.2290802 22.40028381 C-4.22605921 21.00406091 -4.21817742 19.60784133 -4.20581055 18.21166992 C-4.18754196 16.06742502 -4.18530094 13.92361151 -4.18554688 11.77929688 C-4.14344252 0.17264344 -4.14344252 0.17264344 0 0 Z " fill="#F0EFF2" transform="translate(126,138.875)"/>
<path d="M0 0 C1.4540625 0.0309375 1.4540625 0.0309375 2.9375 0.0625 C2.9375 0.7225 2.9375 1.3825 2.9375 2.0625 C3.9275 1.4025 4.9175 0.7425 5.9375 0.0625 C10.07252013 0.13907445 12.41037841 0.71482406 15.875 3 C18.41454492 6.77083942 18.64798502 9.21216297 18.44140625 13.68359375 C17.68250399 17.26631838 15.79101561 18.90496381 12.9375 21.0625 C12.6075 21.3925 12.2775 21.7225 11.9375 22.0625 C9.60452567 22.10342937 7.27044775 22.10491723 4.9375 22.0625 C4.87691406 22.70058594 4.81632812 23.33867187 4.75390625 23.99609375 C4.67011719 24.82238281 4.58632813 25.64867187 4.5 26.5 C4.41878906 27.32371094 4.33757813 28.14742187 4.25390625 28.99609375 C3.9375 31.0625 3.9375 31.0625 2.9375 32.0625 C-0.0625 32.1875 -0.0625 32.1875 -3.0625 32.0625 C-4.94569268 30.17930732 -4.19304285 26.94319863 -4.1953125 24.4375 C-4.19626923 23.77540527 -4.19722595 23.11331055 -4.19821167 22.43115234 C-4.19889326 21.02897039 -4.19704042 19.6267853 -4.19287109 18.22460938 C-4.18752246 16.07154287 -4.1928167 13.91868498 -4.19921875 11.765625 C-4.19855796 10.40624954 -4.19727679 9.0468742 -4.1953125 7.6875 C-4.19418457 6.44226563 -4.19305664 5.19703125 -4.19189453 3.9140625 C-4.01250928 -0.03918231 -3.99064254 0.08144168 0 0 Z " fill="#F0EEF3" transform="translate(46.0625,148.9375)"/>
<path d="M0 0 C3.125 2 3.125 2 5 4 C4.25 5.9375 4.25 5.9375 3 8 C0.9375 8.8125 0.9375 8.8125 -1 9 C-1.33 8.67 -1.66 8.34 -2 8 C-3.66617115 7.95936168 -5.33388095 7.957279 -7 8 C-7 8.99 -7 9.98 -7 11 C-6.31292969 11.18175781 -5.62585937 11.36351562 -4.91796875 11.55078125 C-4.01691406 11.80214844 -3.11585937 12.05351562 -2.1875 12.3125 C-1.29417969 12.55613281 -0.40085937 12.79976562 0.51953125 13.05078125 C3.12913997 14.04941892 4.36954707 14.74691456 6 17 C6.68846703 20.06367828 6.59918847 22.92308625 6 26 C3.5625 29 3.5625 29 1 31 C0.67 31.33 0.34 31.66 0 32 C-4.11705805 32.54273835 -8.28763413 32.95838873 -11.99609375 30.8828125 C-13.625 29.5 -13.625 29.5 -16 27 C-15.67 25.35 -15.34 23.7 -15 22 C-13.25 21.3125 -13.25 21.3125 -11 21 C-10.38125 21.474375 -9.7625 21.94875 -9.125 22.4375 C-6.32450299 24.49668898 -4.39275049 24.2313239 -1 24 C-1.33 23.01 -1.66 22.02 -2 21 C-4.19572758 19.93486058 -4.19572758 19.93486058 -6.8125 19.125 C-11.13340776 17.49306917 -13.77397711 16.24968006 -16 12 C-16.6602967 8.03821982 -16.36550574 6.54825861 -14.125 3.1875 C-10.08392061 -0.97243466 -5.54224748 -0.669942 0 0 Z " fill="#F4F3F6" transform="translate(33,140)"/>
<path d="M0 0 C0.53625 0.2475 1.0725 0.495 1.625 0.75 C3.68689168 6.72123831 3.99127439 12.20883752 4 18.5 C4.02449219 19.44488281 4.04898438 20.38976562 4.07421875 21.36328125 C4.08001953 22.72259766 4.08001953 22.72259766 4.0859375 24.109375 C4.09415527 24.92889648 4.10237305 25.74841797 4.11083984 26.59277344 C3.625 28.75 3.625 28.75 1.70751953 30.46484375 C1.02028809 30.88894531 0.33305664 31.31304687 -0.375 31.75 C-0.9628125 32.14703125 -1.550625 32.5440625 -2.15625 32.953125 C-6.79799349 35.78036876 -6.79799349 35.78036876 -9.75 35.625 C-11.375 34.75 -11.375 34.75 -12.375 32.75 C-12.66898762 29.38191564 -12.65306301 26.00441654 -12.6875 22.625 C-12.71650391 21.69945313 -12.74550781 20.77390625 -12.77539062 19.8203125 C-12.83210897 13.64237557 -12.02413837 8.85294154 -8.375 3.75 C-3.54757143 -0.37342857 -3.54757143 -0.37342857 0 0 Z " fill="#F8F7F9" transform="translate(94.375,76.25)"/>
<path d="M0 0 C4.17353066 0.84732588 7.26142653 2.74292328 10 6 C12.82794091 11.34387895 13.44562036 15.57208378 13.3125 21.5625 C13.31733398 22.65594727 13.31733398 22.65594727 13.32226562 23.77148438 C13.27826677 28.21536885 12.6589753 31.81620971 11 36 C5.85087905 35.51726991 0.66411915 32.66411915 -3 29 C-3.28162547 25.84238115 -3.23194496 22.66865898 -3.25 19.5 C-3.270625 18.62601563 -3.29125 17.75203125 -3.3125 16.8515625 C-3.34898629 10.70362286 -2.3054755 5.69588065 0 0 Z " fill="#F8F8F9" transform="translate(112,76)"/>
<path d="M0 0 C3.50745952 2.04601805 5.73959779 4.10421136 7 8 C7.50818509 11.8960857 7.1671889 13.68419875 5.3125 17.1875 C1.97291591 21.24915632 -0.23216108 22.81058869 -5.5 23.375 C-10.32756847 22.85776052 -12.7284599 21.53461736 -15.8125 17.8125 C-17.36235209 14.14179769 -17.83367381 10.88037262 -17 7 C-12.83815436 -0.15220881 -7.73705737 -0.88945699 0 0 Z " fill="#F3F2F4" transform="translate(113,149)"/>
<path d="M0 0 C3.125 2.0625 3.125 2.0625 5 5 C5.4375 8.6875 5.4375 8.6875 5 12 C2.41073669 14.58926331 0.97294721 14.37398043 -2.625 14.625 C-3.62789062 14.69976562 -4.63078125 14.77453125 -5.6640625 14.8515625 C-6.82035156 14.92503906 -6.82035156 14.92503906 -8 15 C-6.96593327 16.25949049 -6.96593327 16.25949049 -4.71484375 16.09765625 C-3.79832031 16.08605469 -2.88179687 16.07445312 -1.9375 16.0625 C-1.01839844 16.05347656 -0.09929687 16.04445312 0.84765625 16.03515625 C1.55792969 16.02355469 2.26820313 16.01195312 3 16 C3.625 18.375 3.625 18.375 4 21 C1.35175491 23.64824509 -0.05703275 23.35941487 -3.75 23.4375 C-7.77916094 23.37945687 -10.51012242 23.26669158 -13.6875 20.6875 C-16.87933794 16.97806672 -17.3952889 13.93664541 -17.359375 9.0703125 C-16.71820971 5.3766429 -14.64068388 3.57781045 -12 1 C-8.27210896 -0.86394552 -4.05962028 -0.55445363 0 0 Z " fill="#F6F5F7" transform="translate(178,149)"/>
<path d="M0 0 C2.5 0.125 2.5 0.125 3.5 1.125 C3.65786308 2.97674706 3.75107356 4.8340911 3.81640625 6.69140625 C3.85830078 7.81611328 3.90019531 8.94082031 3.94335938 10.09960938 C3.98267578 11.28361328 4.02199219 12.46761719 4.0625 13.6875 C4.10568359 14.87537109 4.14886719 16.06324219 4.19335938 17.28710938 C4.29983546 20.23294784 4.40184841 23.1788743 4.5 26.125 C5.49 26.455 6.48 26.785 7.5 27.125 C7.54254356 29.12454746 7.54080783 31.12541636 7.5 33.125 C6.5 34.125 6.5 34.125 3.6875 34.4375 C0.5 34.125 0.5 34.125 -1.67260742 32.52416992 C-4.0977354 29.34023771 -3.97457352 27.39952112 -3.92578125 23.42578125 C-3.91740234 22.13478516 -3.90902344 20.84378906 -3.90039062 19.51367188 C-3.88596924 18.8452124 -3.87154785 18.17675293 -3.85668945 17.48803711 C-3.81242096 15.4338322 -3.79522421 13.38079581 -3.78320312 11.32617188 C-3.65486118 0.18274306 -3.65486118 0.18274306 0 0 Z " fill="#F8F7F8" transform="translate(151.5,137.875)"/>
<path d="M0 0 C1.4540625 0.0309375 1.4540625 0.0309375 2.9375 0.0625 C2.9375 0.7225 2.9375 1.3825 2.9375 2.0625 C3.9275 1.4025 4.9175 0.7425 5.9375 0.0625 C9 -0.1875 9 -0.1875 11.9375 0.0625 C12.5975 0.7225 13.2575 1.3825 13.9375 2.0625 C13.5625 4.6875 13.5625 4.6875 12.9375 7.0625 C10.2975 7.3925 7.6575 7.7225 4.9375 8.0625 C4.88851562 8.97773438 4.83953125 9.89296875 4.7890625 10.8359375 C4.71429688 12.02445313 4.63953125 13.21296875 4.5625 14.4375 C4.49289063 15.62085938 4.42328125 16.80421875 4.3515625 18.0234375 C3.9375 21.0625 3.9375 21.0625 1.9375 23.0625 C-2.61805556 22.50694444 -2.61805556 22.50694444 -4.0625 21.0625 C-4.16130797 19.58597336 -4.19329245 18.10482764 -4.1953125 16.625 C-4.19660156 15.73039063 -4.19789062 14.83578125 -4.19921875 13.9140625 C-4.19341797 12.50253906 -4.19341797 12.50253906 -4.1875 11.0625 C-4.19136719 10.12148437 -4.19523437 9.18046875 -4.19921875 8.2109375 C-4.19792969 7.31632813 -4.19664063 6.42171875 -4.1953125 5.5 C-4.19362061 4.26056641 -4.19362061 4.26056641 -4.19189453 2.99609375 C-3.97364005 -0.26536942 -3.33405737 0.06804199 0 0 Z " fill="#FBFAFA" transform="translate(82.0625,148.9375)"/>
<path d="M0 0 C0.53625 0.2475 1.0725 0.495 1.625 0.75 C0.635 1.08 -0.355 1.41 -1.375 1.75 C-0.715 2.41 -0.055 3.07 0.625 3.75 C0.09390625 3.9459375 -0.4371875 4.141875 -0.984375 4.34375 C-1.69078125 4.6428125 -2.3971875 4.941875 -3.125 5.25 C-3.82109375 5.5284375 -4.5171875 5.806875 -5.234375 6.09375 C-8.58756537 8.68818927 -10.08831447 11.74423431 -11.375 15.75 C-11.83964812 19.3969715 -11.80249967 22.95523264 -11.6875 26.625 C-11.67783203 27.57375 -11.66816406 28.5225 -11.65820312 29.5 C-11.74030233 34.28438703 -11.74030233 34.28438703 -10.375 38.75 C-3.18205247 37.0789499 -3.18205247 37.0789499 2.625 32.75 C3.7324104 27.70214384 3.78690924 22.8987138 3.625 17.75 C3.955 17.75 4.285 17.75 4.625 17.75 C4.68558594 18.58144531 4.74617188 19.41289063 4.80859375 20.26953125 C4.93427734 21.89955078 4.93427734 21.89955078 5.0625 23.5625 C5.18431641 25.18091797 5.18431641 25.18091797 5.30859375 26.83203125 C5.52712461 29.80989905 5.52712461 29.80989905 6.625 32.75 C5.39365731 36.75975697 2.95333045 38.06418189 -0.625 40 C-2.02492188 40.78117187 -2.02492188 40.78117187 -3.453125 41.578125 C-6.6470936 42.85912845 -8.96646822 42.9718571 -12.375 42.75 C-15.19576895 37.90132689 -15.99410686 33.9784394 -16.25 28.5 C-16.28754395 27.75000732 -16.32508789 27.00001465 -16.36376953 26.22729492 C-16.60467983 18.8348587 -15.65000941 12.38775505 -11.0625 6.375 C-4.09445701 -0.43099548 -4.09445701 -0.43099548 0 0 Z " fill="#251857" transform="translate(94.375,72.25)"/>
<path d="M0 0 C3 0.125 3 0.125 4 1.125 C4.25035974 4.43016934 4.18521952 7.74896041 4.1875 11.0625 C4.19974609 11.99513672 4.21199219 12.92777344 4.22460938 13.88867188 C4.22750977 15.22575195 4.22750977 15.22575195 4.23046875 16.58984375 C4.23457764 17.410896 4.23868652 18.23194824 4.24291992 19.07788086 C4 21.125 4 21.125 2 23.125 C-2.55555556 22.56944444 -2.55555556 22.56944444 -4 21.125 C-4.09880797 19.64847336 -4.13079245 18.16732764 -4.1328125 16.6875 C-4.13410156 15.79289063 -4.13539062 14.89828125 -4.13671875 13.9765625 C-4.13091797 12.56503906 -4.13091797 12.56503906 -4.125 11.125 C-4.12886719 10.18398437 -4.13273437 9.24296875 -4.13671875 8.2734375 C-4.13542969 7.37882813 -4.13414063 6.48421875 -4.1328125 5.5625 C-4.13112061 4.32306641 -4.13112061 4.32306641 -4.12939453 3.05859375 C-3.91367654 -0.16496561 -3.2895365 0.13706402 0 0 Z " fill="#EAE8EF" transform="translate(71,148.875)"/>
<path d="M0 0 C0.33 0 0.66 0 1 0 C2.75106173 7.58793415 2.89641547 16.41433813 1 24 C-0.625 26.5 -0.625 26.5 -3 28 C-9.34458153 28.25378326 -15.25508136 25.10862687 -20 21 C-20.8515625 18.359375 -20.8515625 18.359375 -21 16 C-20.67 15.67 -20.34 15.34 -20 15 C-19.76572222 12.98405418 -19.58663876 10.961526 -19.4375 8.9375 C-19.35371094 7.83277344 -19.26992187 6.72804688 -19.18359375 5.58984375 C-19.12300781 4.73519531 -19.06242187 3.88054687 -19 3 C-18.67 3 -18.34 3 -18 3 C-18.03222656 4.01320313 -18.06445312 5.02640625 -18.09765625 6.0703125 C-18.28992333 13.70163763 -18.28992333 13.70163763 -15.0703125 20.33203125 C-11.12955229 22.9871992 -8.82064126 24 -4 24 C-2.72879242 18.54746501 -2.63858439 13.07088625 -2.37890625 7.49609375 C-2.04248226 4.39197548 -1.63492648 2.60132026 0 0 Z " fill="#211352" transform="translate(127,87)"/>
<path d="M0 0 C2.31 0.66 4.62 1.32 7 2 C7.66666667 5.33333333 8.33333333 8.66666667 9 12 C9.99 11.67 10.98 11.34 12 11 C11.07743626 15.05928044 10.35416746 16.71365184 7.0625 19.375 C4 21 4 21 1 21 C1.66 19.35 2.32 17.7 3 16 C3.66 16 4.32 16 5 16 C5 15.34 5 14.68 5 14 C2.69 13.34 0.38 12.68 -2 12 C-2.33 10.02 -2.66 8.04 -3 6 C-2.34 6 -1.68 6 -1 6 C-0.67 4.02 -0.34 2.04 0 0 Z " fill="#211152" transform="translate(60,39)"/>
<path d="M0 0 C1.96838018 2.95257027 2.39061574 4.60485915 3 8 C3.33 8.66 3.66 9.32 4 10 C3.35546875 10.22429687 2.7109375 10.44859375 2.046875 10.6796875 C-0.24388852 11.82889456 -0.24388852 11.82889456 -0.609375 14.3828125 C-0.67898437 15.74019531 -0.67898437 15.74019531 -0.75 17.125 C-0.80671875 18.03507812 -0.8634375 18.94515625 -0.921875 19.8828125 C-0.94765625 20.58148438 -0.9734375 21.28015625 -1 22 C-1.33 22 -1.66 22 -2 22 C-2.33 17.38 -2.66 12.76 -3 8 C-3.33 8.33 -3.66 8.66 -4 9 C-6.33944736 8.71269945 -8.6739143 8.38063221 -11 8 C-11.125 5.625 -11.125 5.625 -11 3 C-7.86130061 -0.13869939 -4.35917539 -0.45886057 0 0 Z " fill="#17024F" transform="translate(78,137)"/>
<path d="M0 0 C0.33 0.99 0.66 1.98 1 3 C0.67 3.66 0.34 4.32 0 5 C-0.09540112 6.49761762 -0.13073486 7.99934828 -0.1328125 9.5 C-0.13410156 10.386875 -0.13539062 11.27375 -0.13671875 12.1875 C-0.13285156 13.115625 -0.12898438 14.04375 -0.125 15 C-0.12886719 15.928125 -0.13273437 16.85625 -0.13671875 17.8125 C-0.13478516 19.1428125 -0.13478516 19.1428125 -0.1328125 20.5 C-0.13168457 21.3146875 -0.13055664 22.129375 -0.12939453 22.96875 C-0.12801503 25.06850952 -0.12801503 25.06850952 1 27 C-0.98 27.33 -2.96 27.66 -5 28 C-5.33 27.34 -5.66 26.68 -6 26 C-5.34 26 -4.68 26 -4 26 C-4.66 24.35 -5.32 22.7 -6 21 C-5.67 20.67 -5.34 20.34 -5 20 C-4.24598679 13.34401858 -4.24598679 13.34401858 -6.875 7.5 C-7.57625 7.005 -8.2775 6.51 -9 6 C-9.66 5.34 -10.32 4.68 -11 4 C-7.33694766 3.25073929 -4.57644848 2.7619986 -1 4 C-0.67 2.68 -0.34 1.36 0 0 Z " fill="#17074B" transform="translate(68,145)"/>
<path d="M0 0 C1.32 0 2.64 0 4 0 C2.25 7.75 2.25 7.75 0 10 C-0.86625 9.54625 -1.7325 9.0925 -2.625 8.625 C-5.71476907 7.13733341 -8.72930848 6.0123569 -12 5 C-11.67 3.68 -11.34 2.36 -11 1 C-8.43851555 0.92884765 -6.28787045 0.9177513 -3.8125 1.625 C-3.214375 1.74875 -2.61625 1.8725 -2 2 C-1.34 1.34 -0.68 0.68 0 0 Z " fill="#1C0A4F" transform="translate(37,146)"/>
<path d="M0 0 C1.67542976 0.28604898 3.34385343 0.61781233 5 1 C5.33 3.31 5.66 5.62 6 8 C6.99 8 7.98 8 9 8 C8.67 15.26 8.34 22.52 8 30 C7.34 29.67 6.68 29.34 6 29 C5.56906117 26.15101553 5.24989291 23.36568455 5 20.5 C4.12112731 11.13735367 4.12112731 11.13735367 2 2 C1.01 1.67 0.02 1.34 -1 1 C-0.67 0.67 -0.34 0.34 0 0 Z " fill="#1E1051" transform="translate(93,73)"/>
<path d="M0 0 C0.53625 0.2475 1.0725 0.495 1.625 0.75 C0.635 1.08 -0.355 1.41 -1.375 1.75 C-0.715 2.41 -0.055 3.07 0.625 3.75 C0.09390625 3.9459375 -0.4371875 4.141875 -0.984375 4.34375 C-5.84207953 6.40029644 -8.59057634 8.35069926 -10.69921875 13.24609375 C-12.06641127 18.31181862 -12.21576711 23.52716119 -12.375 28.75 C-12.705 28.75 -13.035 28.75 -13.375 28.75 C-13.375 25.45 -13.375 22.15 -13.375 18.75 C-14.035 18.75 -14.695 18.75 -15.375 18.75 C-15.10462699 12.26104785 -12.77701195 8.46862998 -8.375 3.75 C-5.76931883 1.40680759 -3.66550799 -0.38584295 0 0 Z " fill="#312460" transform="translate(94.375,72.25)"/>
<path d="M0 0 C5.03955644 1.72784792 8.56678041 4.12198812 11.8125 8.375 C13.19964687 11.44132467 13.23227044 13.67079034 13 17 C12.34 17.33 11.68 17.66 11 18 C10.69707031 17.32453125 10.39414063 16.6490625 10.08203125 15.953125 C7.69888342 10.87885331 5.87766202 7.08062864 1 4 C0.01 3.34 -0.98 2.68 -2 2 C-1.34 1.34 -0.68 0.68 0 0 Z " fill="#241555" transform="translate(114,73)"/>
<path d="M0 0 C0.33 0 0.66 0 1 0 C2.81265169 7.854824 2.43580976 16.10304631 1 24 C0.67 24 0.34 24 0 24 C-2.11660466 17.12103485 -3.92929634 8.4819038 -0.984375 1.640625 C-0.65953125 1.09921875 -0.3346875 0.5578125 0 0 Z " fill="#372A66" transform="translate(127,87)"/>
<path d="M0 0 C2.31 0.66 4.62 1.32 7 2 C8 6.75 8 6.75 8 9 C4.7 9.33 1.4 9.66 -2 10 C-2.33 8.68 -2.66 7.36 -3 6 C-2.34 6 -1.68 6 -1 6 C-0.67 4.02 -0.34 2.04 0 0 Z " fill="#1D0B52" transform="translate(60,39)"/>
<path d="M0 0 C2.625 0.375 2.625 0.375 5 1 C5.625 3.375 5.625 3.375 6 6 C4 8 4 8 1.4375 8.1875 C-1 8 -1 8 -2 7 C-2.1875 4.5625 -2.1875 4.5625 -2 2 C-1.34 1.34 -0.68 0.68 0 0 Z " fill="#1F0F53" transform="translate(106,156)"/>
<path d="M0 0 C0.99 0.66 1.98 1.32 3 2 C3.2208564 4.95064148 3.28060989 7.68368231 3.1875 10.625 C3.17396484 11.42679688 3.16042969 12.22859375 3.14648438 13.0546875 C3.11109051 15.03674378 3.05728234 17.01845551 3 19 C2.67 19 2.34 19 2 19 C1.95101562 18.14535156 1.90203125 17.29070312 1.8515625 16.41015625 C1.77679688 15.30542969 1.70203125 14.20070313 1.625 13.0625 C1.55539063 11.96035156 1.48578125 10.85820313 1.4140625 9.72265625 C1.27742188 8.82417969 1.14078125 7.92570312 1 7 C0.34 6.67 -0.32 6.34 -1 6 C-1 10.62 -1 15.24 -1 20 C-1.33 20 -1.66 20 -2 20 C-2.05379226 17.04142591 -2.09357093 14.08382279 -2.125 11.125 C-2.14175781 10.28324219 -2.15851563 9.44148438 -2.17578125 8.57421875 C-2.18222656 7.76855469 -2.18867187 6.96289062 -2.1953125 6.1328125 C-2.21102295 5.01737061 -2.21102295 5.01737061 -2.22705078 3.87939453 C-2 2 -2 2 0 0 Z " fill="#D0CCDA" transform="translate(103,82)"/>
<path d="M0 0 C3 0.125 3 0.125 4 1.125 C4.125 3.625 4.125 3.625 4 6.125 C3.67 6.455 3.34 6.785 3 7.125 C0.66055264 6.83769945 -1.6739143 6.50563221 -4 6.125 C-4.042721 4.45888095 -4.04063832 2.79117115 -4 1.125 C-3 0.125 -3 0.125 0 0 Z " fill="#DEDAE6" transform="translate(71,138.875)"/>
<path d="M0 0 C0.33 0 0.66 0 1 0 C1.33 5.94 1.66 11.88 2 18 C3.32 18.33 4.64 18.66 6 19 C6.33 15.37 6.66 11.74 7 8 C7.33 8 7.66 8 8 8 C8.05389087 9.95803507 8.09274217 11.91648909 8.125 13.875 C8.14820312 14.96554688 8.17140625 16.05609375 8.1953125 17.1796875 C8 20 8 20 6 22 C1.44444444 21.44444444 1.44444444 21.44444444 0 20 C-0.08669432 18.5112814 -0.10703494 17.018555 -0.09765625 15.52734375 C-0.09443359 14.62822266 -0.09121094 13.72910156 -0.08789062 12.80273438 C-0.07951172 11.85720703 -0.07113281 10.91167969 -0.0625 9.9375 C-0.05798828 8.98810547 -0.05347656 8.03871094 -0.04882812 7.06054688 C-0.0370011 4.70696935 -0.02052025 2.35351523 0 0 Z " fill="#C9C4D5" transform="translate(78,150)"/>
<path d="M0 0 C0.33 0 0.66 0 1 0 C1.01417969 1.03640625 1.02835937 2.0728125 1.04296875 3.140625 C1.08988093 4.51046057 1.13812827 5.88025087 1.1875 7.25 C1.19330078 7.93191406 1.19910156 8.61382812 1.20507812 9.31640625 C1.3756508 13.2206252 1.70648831 14.7141295 4.55078125 17.484375 C5.35902344 17.98453125 6.16726562 18.4846875 7 19 C6.67 19.66 6.34 20.32 6 21 C0.25 19.375 0.25 19.375 -2 16 C-1.82156573 13.2054891 -1.54398974 10.56964512 -1.125 7.8125 C-0.96837891 6.68811523 -0.96837891 6.68811523 -0.80859375 5.54101562 C-0.5495672 3.69250796 -0.27616034 1.84602568 0 0 Z " fill="#312360" transform="translate(108,90)"/>
<path d="M0 0 C1.66611905 -0.042721 3.33382885 -0.04063832 5 0 C6 1 6 1 6.0625 3.5625 C6.041875 4.366875 6.02125 5.17125 6 6 C3.625 6.625 3.625 6.625 1 7 C0.34 6.34 -0.32 5.68 -1 5 C-0.625 2.375 -0.625 2.375 0 0 Z " fill="#231555" transform="translate(131,157)"/>
<path d="M0 0 C1.2065625 0.0309375 1.2065625 0.0309375 2.4375 0.0625 C3.0625 2.4375 3.0625 2.4375 3.4375 5.0625 C2.7775 5.7225 2.1175 6.3825 1.4375 7.0625 C-0.6875 6.6875 -0.6875 6.6875 -2.5625 6.0625 C-2.94468767 4.40635343 -3.27645102 2.73792976 -3.5625 1.0625 C-2.5625 0.0625 -2.5625 0.0625 0 0 Z " fill="#1F0F51" transform="translate(53.5625,156.9375)"/>
<path d="M0 0 C0.33 0 0.66 0 1 0 C1.12117188 0.91523438 1.24234375 1.83046875 1.3671875 2.7734375 C1.53476563 3.96195313 1.70234375 5.15046875 1.875 6.375 C2.03742188 7.55835938 2.19984375 8.74171875 2.3671875 9.9609375 C2.7302585 13.09566659 2.7302585 13.09566659 5 15 C3.02 15.33 1.04 15.66 -1 16 C-1.33 15.34 -1.66 14.68 -2 14 C-1.34 14 -0.68 14 0 14 C-0.66 12.35 -1.32 10.7 -2 9 C-1.67 8.67 -1.34 8.34 -1 8 C-0.76924918 6.65252916 -0.58846937 5.29622435 -0.4375 3.9375 C-0.293125 2.638125 -0.14875 1.33875 0 0 Z " fill="#2A195D" transform="translate(64,157)"/>
<path d="M0 0 C0 1.32 0 2.64 0 4 C0.66 4 1.32 4 2 4 C1.67 6.31 1.34 8.62 1 11 C1.66 11.33 2.32 11.66 3 12 C1.02 12.99 1.02 12.99 -1 14 C-1.33 10.37 -1.66 6.74 -2 3 C-3.65 2.67 -5.3 2.34 -7 2 C-4 0 -4 0 0 0 Z " fill="#291959" transform="translate(131,137)"/>
<path d="M0 0 C0.33 0 0.66 0 1 0 C1 8.25 1 16.5 1 25 C0.34 24.67 -0.32 24.34 -1 24 C-0.67 16.08 -0.34 8.16 0 0 Z M-3 23 C-2.34 23.99 -1.68 24.98 -1 26 C-1.99 27.485 -1.99 27.485 -3 29 C-3.66 29 -4.32 29 -5 29 C-4.49396008 26.83125748 -4.00016187 25.00032373 -3 23 Z " fill="#2C1D5F" transform="translate(147,141)"/>
<path d="M0 0 C0.66 0 1.32 0 2 0 C1.67 5.61 1.34 11.22 1 17 C0.34 17.33 -0.32 17.66 -1 18 C-1.02707139 15.75006641 -1.04642829 13.50003905 -1.0625 11.25 C-1.07410156 9.99703125 -1.08570312 8.7440625 -1.09765625 7.453125 C-1.02021027 4.71463499 -0.82780815 2.58119707 0 0 Z " fill="#100247" transform="translate(107,85)"/>
<path d="M0 0 C2.37590142 3.70416126 2.20500286 6.92984573 2.125 11.25 C2.10695313 12.51328125 2.08890625 13.7765625 2.0703125 15.078125 C2.03550781 16.52445313 2.03550781 16.52445313 2 18 C1.34 17.67 0.68 17.34 0 17 C-0.3400005 14.30364823 -0.55958136 11.70722351 -0.6875 9 C-0.73455078 8.24976562 -0.78160156 7.49953125 -0.83007812 6.7265625 C-0.93505575 4.81975572 -0.97278125 2.90950034 -1 1 C-0.67 0.67 -0.34 0.34 0 0 Z " fill="#100144" transform="translate(99,85)"/>
<path d="M0 0 C3.26954202 0.56371414 4.82575883 1.49962266 7 4 C6.67 4.66 6.34 5.32 6 6 C5.071875 5.979375 4.14375 5.95875 3.1875 5.9375 C-0.02286011 5.84230396 -0.02286011 5.84230396 -3 7 C-3 6.34 -3 5.68 -3 5 C-3.66 4.67 -4.32 4.34 -5 4 C-4.360625 3.71125 -3.72125 3.4225 -3.0625 3.125 C-0.84793921 2.17176549 -0.84793921 2.17176549 0 0 Z " fill="#200F51" transform="translate(88,144)"/>
<path d="M0 0 C0.66 0.33 1.32 0.66 2 1 C2.3125 3.8125 2.3125 3.8125 2 7 C-0.5 8.875 -0.5 8.875 -3 10 C-3.66 9.01 -4.32 8.02 -5 7 C-4.360625 6.21625 -3.72125 5.4325 -3.0625 4.625 C-1.01857687 2.20460719 -1.01857687 2.20460719 0 0 Z " fill="#221154" transform="translate(119,163)"/>
<path d="M0 0 C3.12826838 0.29100171 4.37427733 1.19380207 6.6875 3.25 C3.7175 3.91 0.7475 4.57 -2.3125 5.25 C-2.6425 3.93 -2.9725 2.61 -3.3125 1.25 C-2.3125 0.25 -2.3125 0.25 0 0 Z " fill="#211155" transform="translate(28.3125,146.75)"/>
<path d="M0 0 C2 3 2 3 1.625 5.6875 C1.41875 6.450625 1.2125 7.21375 1 8 C-1 7 -1 7 -2 4 C-5.51190809 2.77030122 -5.51190809 2.77030122 -9 2 C-5.89782379 0.16167336 -3.60591321 -0.47446226 0 0 Z " fill="#281659" transform="translate(78,137)"/>
<path d="M0 0 C0.33 0 0.66 0 1 0 C1.96891192 5.37305699 1.96891192 5.37305699 2 8 C0.5625 10 0.5625 10 -1 11 C-1 9.35 -1 7.7 -1 6 C-1.99 5.67 -2.98 5.34 -4 5 C-2.69254251 3.31295807 -1.35827971 1.64639965 0 0 Z " fill="#3C2F69" transform="translate(160,159)"/>
<path d="M0 0 C1.2065625 0.0309375 1.2065625 0.0309375 2.4375 0.0625 C2.4375 1.0525 2.4375 2.0425 2.4375 3.0625 C1.7775 3.0625 1.1175 3.0625 0.4375 3.0625 C-0.2225 4.3825 -0.8825 5.7025 -1.5625 7.0625 C-2.2225 6.7325 -2.8825 6.4025 -3.5625 6.0625 C-3.605221 4.39638095 -3.60313832 2.72867115 -3.5625 1.0625 C-2.5625 0.0625 -2.5625 0.0625 0 0 Z " fill="#E2DFE9" transform="translate(151.5625,137.9375)"/>
<path d="M0 0 C1.67542976 0.28604898 3.34385343 0.61781233 5 1 C5.33 2.32 5.66 3.64 6 5 C4.02 5.33 2.04 5.66 0 6 C0.66 4.68 1.32 3.36 2 2 C1.01 1.67 0.02 1.34 -1 1 C-0.67 0.67 -0.34 0.34 0 0 Z " fill="#241655" transform="translate(26,159)"/>
<path d="M0 0 C0.66 0.33 1.32 0.66 2 1 C1.67 2.65 1.34 4.3 1 6 C-0.65 6.33 -2.3 6.66 -4 7 C-3.34 5.35 -2.68 3.7 -2 2 C-1.34 2 -0.68 2 0 2 C0 1.34 0 0.68 0 0 Z " fill="#19084E" transform="translate(110,157)"/>
<path d="M0 0 C-0.33 2.31 -0.66 4.62 -1 7 C-2.32 7 -3.64 7 -5 7 C-4.625 4.0625 -4.625 4.0625 -4 1 C-2 0 -2 0 0 0 Z " fill="#FCFCF8" transform="translate(63,154)"/>
<path d="M0 0 C0.66 0 1.32 0 2 0 C2.33 0.66 2.66 1.32 3 2 C5.01669827 3.13350534 5.01669827 3.13350534 7 4 C6.67 4.66 6.34 5.32 6 6 C4.35 6 2.7 6 1 6 C-0.0625 4.125 -0.0625 4.125 -1 2 C-0.67 1.34 -0.34 0.68 0 0 Z " fill="#221253" transform="translate(81,109)"/>
<path d="M0 0 C0.99 0 1.98 0 3 0 C3 4.29 3 8.58 3 13 C1.68 12.67 0.36 12.34 -1 12 C-0.67 11.34 -0.34 10.68 0 10 C0.06996014 8.29297265 0.08440154 6.58331997 0.0625 4.875 C0.05347656 3.96492187 0.04445312 3.05484375 0.03515625 2.1171875 C0.02355469 1.41851562 0.01195312 0.71984375 0 0 Z " fill="#332560" transform="translate(38,156)"/>
<path d="M0 0 C2.97 0 5.94 0 9 0 C9 0.66 9 1.32 9 2 C5.7 2.33 2.4 2.66 -1 3 C-0.67 2.01 -0.34 1.02 0 0 Z " fill="#C8C3D5" transform="translate(59,48)"/>
<path d="M0 0 C0 0.99 0 1.98 0 3 C-2.31 3 -4.62 3 -7 3 C-6.67 2.01 -6.34 1.02 -6 0 C-3.50907189 -1.24546405 -2.58919267 -0.7767578 0 0 Z " fill="#382C66" transform="translate(176,156)"/>
<path d="M0 0 C0.33 0 0.66 0 1 0 C1.06058594 0.83144531 1.12117188 1.66289063 1.18359375 2.51953125 C1.26738281 3.60621094 1.35117188 4.69289063 1.4375 5.8125 C1.51871094 6.89144531 1.59992188 7.97039062 1.68359375 9.08203125 C1.90212461 12.05989905 1.90212461 12.05989905 3 15 C2.34 15.66 1.68 16.32 1 17 C0 16 0 16 -0.09765625 12.40234375 C-0.0909822 10.91403133 -0.07902183 9.42573568 -0.0625 7.9375 C-0.05798828 7.17888672 -0.05347656 6.42027344 -0.04882812 5.63867188 C-0.0370068 3.75908129 -0.01907078 1.87953101 0 0 Z " fill="#312264" transform="translate(98,90)"/>
<path d="M0 0 C0.99 0.33 1.98 0.66 3 1 C3 5.29 3 9.58 3 14 C2.67 14 2.34 14 2 14 C2 10.7 2 7.4 2 4 C1.34 4 0.68 4 0 4 C0 2.68 0 1.36 0 0 Z " fill="#524879" transform="translate(79,87)"/>
<path d="M0 0 C0.66 0.66 1.32 1.32 2 2 C-3.625 6 -3.625 6 -7 6 C-7 5.34 -7 4.68 -7 4 C-4.69 2.68 -2.38 1.36 0 0 Z " fill="#DCD8E6" transform="translate(68,54)"/>
<path d="M0 0 C1.98 0.495 1.98 0.495 4 1 C4 2.65 4 4.3 4 6 C3.01 6 2.02 6 1 6 C-0.0625 4.125 -0.0625 4.125 -1 2 C-0.67 1.34 -0.34 0.68 0 0 Z " fill="#241454" transform="translate(73,46)"/>
<path d="M0 0 C2.475 0.495 2.475 0.495 5 1 C5 2.65 5 4.3 5 6 C2.525 5.01 2.525 5.01 0 4 C0 2.66666667 0 1.33333333 0 0 Z " fill="#15064A" transform="translate(132,157)"/>
<path d="M0 0 C0.66 1.32 1.32 2.64 2 4 C0.68 4.99 -0.64 5.98 -2 7 C-2 6.01 -2 5.02 -2 4 C-2.66 3.67 -3.32 3.34 -4 3 C-2.68 2.01 -1.36 1.02 0 0 Z " fill="#E4E1E9" transform="translate(89,69)"/>
<path d="M0 0 C0.66 0 1.32 0 2 0 C2 0.99 2 1.98 2 3 C2.99 3.33 3.98 3.66 5 4 C4.01 4 3.02 4 2 4 C1.67 4.99 1.34 5.98 1 7 C0.01 6.34 -0.98 5.68 -2 5 C-1.34 3.35 -0.68 1.7 0 0 Z " fill="#1E0B4F" transform="translate(58,39)"/>
<path d="M0 0 C0.66 1.32 1.32 2.64 2 4 C1.01 4 0.02 4 -1 4 C-0.67 2.68 -0.34 1.36 0 0 Z M-3 3 C-2.34 3.66 -1.68 4.32 -1 5 C-3.6666419 6.33332095 -5.16680303 5.67102033 -8 5 C-8 4.67 -8 4.34 -8 4 C-5.625 3.375 -5.625 3.375 -3 3 Z " fill="#2F1D60" transform="translate(52,177)"/>
<path d="M0 0 C1.98 0 3.96 0 6 0 C4.768606 2.46278801 3.21935077 3.42497687 1 5 C0.67 3.35 0.34 1.7 0 0 Z " fill="#FBFBF9" transform="translate(68,139)"/>
<path d="M0 0 C0.33 0 0.66 0 1 0 C1.06058594 0.75925781 1.12117188 1.51851563 1.18359375 2.30078125 C1.26738281 3.29464844 1.35117188 4.28851563 1.4375 5.3125 C1.51871094 6.29863281 1.59992188 7.28476563 1.68359375 8.30078125 C1.91812559 11.09375599 1.91812559 11.09375599 3 14 C2.01 13.67 1.02 13.34 0 13 C0 8.71 0 4.42 0 0 Z " fill="#E4E0EA" transform="translate(105,66)"/>
<path d="M0 0 C2.35171131 0.59861742 4.6859378 1.26924352 7 2 C7.33 2.66 7.66 3.32 8 4 C5.36 3.67 2.72 3.34 0 3 C0 2.01 0 1.02 0 0 Z " fill="#DDD8E4" transform="translate(60,39)"/>
<path d="M0 0 C2.875 -0.125 2.875 -0.125 6 0 C6.66 0.66 7.32 1.32 8 2 C7.625 4.625 7.625 4.625 7 7 C5 3.25 5 3.25 5 1 C3.35 1 1.7 1 0 1 C0 0.67 0 0.34 0 0 Z " fill="#D9D4E2" transform="translate(88,149)"/>
<path d="M0 0 C1.65 0.33 3.3 0.66 5 1 C2.94766315 3.2477975 1.99332739 4.0022242 -1 5 C-1 2 -1 2 0 0 Z " fill="#2B1D5B" transform="translate(88,110)"/>
</svg>
